SplineFontDB: 3.0
FontName: Radley
FullName: Radley
FamilyName: Radley
Weight: Regular
Copyright: Copyright (c) 2010 by vernon adams. All rights reserved.
Version: 001.001
ItalicAngle: 0
UnderlinePosition: -205
UnderlineWidth: 102
Ascent: 1638
Descent: 410
sfntRevision: 0x00010000
LayerCount: 2
Layer: 0 0 "Back"  1
Layer: 1 0 "Fore"  0
XUID: [1021 14 500265001 15996484]
FSType: 0
OS2Version: 3
OS2_WeightWidthSlopeOnly: 0
OS2_UseTypoMetrics: 1
CreationTime: 1304379480
ModificationTime: 1313269076
PfmFamily: 17
TTFWeight: 400
TTFWidth: 5
LineGap: 0
VLineGap: 0
Panose: 2 0 5 3 0 0 0 2 0 3
OS2TypoAscent: 1800
OS2TypoAOffset: 0
OS2TypoDescent: -248
OS2TypoDOffset: 0
OS2TypoLinegap: 0
OS2WinAscent: 1800
OS2WinAOffset: 0
OS2WinDescent: 248
OS2WinDOffset: 0
HheadAscent: 1800
HheadAOffset: 0
HheadDescent: -248
HheadDOffset: 0
OS2SubXSize: 1331
OS2SubYSize: 1228
OS2SubXOff: 0
OS2SubYOff: 153
OS2SupXSize: 1331
OS2SupYSize: 1228
OS2SupXOff: 0
OS2SupYOff: 716
OS2StrikeYSize: 102
OS2StrikeYPos: 539
OS2Vendor: 'newt'
OS2CodePages: 20000093.00000000
OS2UnicodeRanges: 00000007.00000000.00000000.00000000
Lookup: 4 0 1 "'liga' Standard Ligatures in Latin lookup 0"  {"'liga' Standard Ligatures in Latin lookup 0-1"  } ['liga' ('DFLT' <'dflt' > 'latn' <'dflt' > ) ]
Lookup: 258 0 0 "'kern' Horizontal Kerning in Latin lookup 1"  {"'kern' Horizontal Kerning in Latin lookup 1-1" [307,0,2] } ['kern' ('DFLT' <'dflt' > 'latn' <'dflt' > ) ]
MarkAttachClasses: 1
DEI: 91125
KernClass2: 3 2 "'kern' Horizontal Kerning in Latin lookup 1-1" 
 1 T
 5 V W Y
 283 a c d e o q agrave aacute acircumflex atilde adieresis aring ae ccedilla egrave eacute ecircumflex edieresis eth ograve oacute ocircumflex otilde odieresis oslash amacron abreve aogonek cacute cdotaccent ccaron dcaron dslash emacron eogonek ecaron omacron obreve ohungarumlaut oe c_k
 0 {} 0 {} 0 {} -184 {} 0 {} -162 {}

StartChar: exclam
Encoding: 33 33 2
Width: 567
Flags: W
LayerCount: 2
Fore
SplineSet
306 421 m 1
 296 389 291 374 275 374 c 0
 251 374 246 390 242 436 c 0
 225 619 201 814 186 967 c 2
 168 1148 l 2
 165 1176 162 1205 162 1234 c 0
 162 1300 190 1322 281 1322 c 0
 372 1322 403 1297 403 1232 c 0
 403 1206 400 1179 397 1152 c 2
 378 966 l 1
 364 808 342 627 327 465 c 0
 324 439 318 427 306 421 c 1
282 223 m 0
 352 223 408 168 408 99 c 0
 408 30 352 -26 282 -26 c 0
 213 -26 159 30 159 99 c 0
 159 168 213 223 282 223 c 0
EndSplineSet
Validated: 1
EndChar

StartChar: quotedbl
Encoding: 34 34 3
Width: 748
Flags: W
LayerCount: 2
Fore
SplineSet
519 753 m 1
 495 809 483 878 457 1028 c 1
 438 1128 l 2
 433 1152 431 1176 430 1200 c 1
 430 1263 465 1302 532 1302 c 0
 600 1302 634 1263 634 1200 c 1
 632 1181 631 1162 629 1143 c 1
 610 1042 l 2
 595 961 581 880 567 800 c 1
 550 758 539 753 519 753 c 1
203 753 m 1
 177 810 167 879 139 1028 c 2
 120 1128 l 1
 116 1165 l 2
 114 1176 113 1188 113 1200 c 0
 113 1263 148 1302 215 1302 c 0
 282 1302 317 1263 317 1200 c 1
 313 1144 300 1084 290 1028 c 2
 261 868 l 2
 243 767 230 753 203 753 c 1
EndSplineSet
Validated: 1
EndChar

StartChar: numbersign
Encoding: 35 35 4
Width: 1269
Flags: W
LayerCount: 2
Fore
SplineSet
835 778 m 1
 488 778 l 1
 467 688 447 597 425 505 c 1
 774 505 l 1
 835 778 l 1
159 907 m 1
 387 907 l 1
 425 1056 469 1202 491 1362 c 1
 518 1367 547 1382 608 1382 c 1
 625 1373 629 1357 629 1339 c 0
 629 1265 581 1137 519 907 c 1
 862 907 l 1
 931 1208 926 1307 995 1382 c 1
 1055 1382 1081 1362 1111 1347 c 1
 1094 1256 1050 1104 997 907 c 1
 1133 907 l 1
 1182 880 1193 848 1193 803 c 1
 1165 781 1128 778 1050 778 c 2
 966 778 l 1
 945 687 925 596 904 504 c 1
 999 504 l 2
 1085 504 1133 496 1170 478 c 1
 1170 429 1160 401 1110 374 c 1
 876 374 l 1
 843 228 809 77 778 -83 c 1
 745 -113 699 -121 656 -121 c 1
 648 -108 637 -81 637 -50 c 0
 637 -41 638 -31 640 -26 c 2
 744 374 l 1
 396 374 l 1
 364 231 331 81 300 -84 c 1
 266 -115 224 -121 181 -121 c 1
 173 -108 162 -82 162 -52 c 0
 162 -44 162 -31 165 -26 c 1
 265 374 l 1
 137 374 l 1
 87 401 77 432 77 481 c 1
 105 499 143 504 219 504 c 2
 294 504 l 1
 357 778 l 1
 272 778 l 2
 185 778 137 781 100 802 c 1
 100 848 111 880 159 907 c 1
EndSplineSet
Validated: 1
EndChar

StartChar: dollar
Encoding: 36 36 5
Width: 1072
Flags: W
LayerCount: 2
Fore
SplineSet
439 -141 m 1
 441 -26 l 1
 304 -18 169 21 73 80 c 1
 94 366 l 1
 105 369 112 371 115 371 c 0
 140 371 154 317 159 282 c 0
 175 159 304 72 449 45 c 1
 449 502 l 1
 310 581 l 2
 163 664 95 763 95 886 c 0
 95 1096 265 1187 460 1200 c 1
 459 1232 459 1261 459 1285 c 0
 459 1385 467 1422 507 1422 c 0
 535 1422 552 1400 552 1278 c 0
 552 1251 552 1226 551 1201 c 1
 651 1196 751 1173 831 1138 c 1
 861 881 l 1
 849 878 840 876 834 876 c 0
 808 876 784 928 777 961 c 0
 755 1066 657 1120 550 1136 c 1
 547 1053 544 943 541 732 c 1
 695 641 l 2
 884 529 931 455 931 319 c 0
 931 81 747 -16 536 -27 c 1
 536 -125 l 2
 536 -205 506 -228 484 -228 c 0
 464 -228 440 -197 439 -141 c 1
538 452 m 1
 537 335 536 197 536 36 c 1
 656 36 757 95 757 222 c 0
 757 318 693 364 538 452 c 1
454 785 m 1
 454 1138 l 1
 349 1130 252 1075 252 990 c 0
 252 936 284 887 359 842 c 2
 454 785 l 1
EndSplineSet
Validated: 1
EndChar

StartChar: percent
Encoding: 37 37 6
Width: 1772
Flags: W
LayerCount: 2
Fore
SplineSet
1502 337 m 0
 1502 541 1449 677 1338 677 c 0
 1238 677 1188 555 1188 363 c 0
 1188 172 1241 41 1354 41 c 0
 1454 41 1502 158 1502 337 c 0
1035 358 m 0
 1035 563 1153 735 1342 735 c 0
 1533 735 1655 557 1655 349 c 0
 1655 149 1540 -18 1354 -22 c 1
 1156 -22 1035 152 1035 358 c 0
491 -138 m 1
 459 -138 430 -125 410 -108 c 1
 436 -60 463 -14 491 34 c 1
 1020 1017 l 1
 1089 1136 1142 1315 1239 1396 c 1
 1290 1396 1312 1381 1332 1368 c 1
 1255 1238 l 1
 1127 1014 863 581 611 18 c 1
 575 -54 531 -98 491 -138 c 1
115 950 m 0
 115 1155 233 1327 423 1327 c 0
 614 1327 736 1149 736 941 c 0
 736 742 621 574 435 571 c 1
 237 571 115 745 115 950 c 0
583 929 m 0
 583 1133 530 1270 419 1270 c 0
 318 1270 268 1148 268 956 c 0
 268 765 321 633 434 633 c 0
 535 633 583 750 583 929 c 0
EndSplineSet
Validated: 1
EndChar

StartChar: ampersand
Encoding: 38 38 7
Width: 1468
Flags: W
LayerCount: 2
Fore
SplineSet
984 886 m 1
 1393 886 l 1
 1394 868 1394 851 1394 835 c 1
 1370 815 1284 813 1261 776 c 0
 1177 643 1141 488 1020 296 c 1
 1081 219 1135 165 1197 165 c 0
 1252 165 1312 208 1387 318 c 1
 1446 275 l 1
 1395 62 1292 -28 1180 -28 c 0
 1081 -28 974 40 896 152 c 1
 765 25 648 -26 488 -26 c 0
 225 -26 73 136 73 319 c 0
 73 502 185 610 411 758 c 1
 310 870 264 960 264 1042 c 0
 264 1341 892 1466 892 1085 c 0
 892 977 788 911 602 799 c 1
 707 681 838 509 969 357 c 1
 1026 457 1071 571 1098 692 c 1
 1106 712 1110 728 1110 741 c 0
 1110 784 1043 813 984 832 c 1
 983 840 982 848 982 858 c 0
 982 866 983 875 984 886 c 1
266 435 m 0
 266 256 408 102 611 102 c 0
 697 102 761 132 845 209 c 1
 717 374 559 576 457 702 c 1
 326 612 266 531 266 435 c 0
427 1104 m 0
 427 1035 475 951 558 849 c 1
 678 918 749 984 749 1071 c 0
 749 1151 685 1250 597 1250 c 0
 499 1250 427 1183 427 1104 c 0
EndSplineSet
Validated: 33
EndChar

StartChar: quoteright
Encoding: 8217 8217 8
Width: 544
Flags: W
LayerCount: 2
Fore
SplineSet
165 793 m 1
 149 807 135 824 129 850 c 1
 214 898 308 928 308 1033 c 1
 289 1060 264 1078 222 1085 c 0
 152 1097 117 1137 117 1199 c 0
 117 1271 174 1328 257 1328 c 0
 365 1328 437 1244 437 1123 c 0
 437 978 338 825 165 793 c 1
EndSplineSet
Validated: 1
EndChar

StartChar: parenleft
Encoding: 40 40 9
Width: 687
Flags: W
LayerCount: 2
Fore
SplineSet
666 -208 m 1
 656 -235 632 -249 613 -268 c 1
 304 -127 147 200 147 571 c 0
 147 941 303 1269 613 1409 c 1
 630 1392 656 1377 666 1350 c 1
 634 1315 599 1295 564 1267 c 1
 377 1132 279 868 279 571 c 0
 279 273 377 10 564 -124 c 1
 599 -152 634 -174 666 -208 c 1
EndSplineSet
Validated: 1
EndChar

StartChar: parenright
Encoding: 41 41 10
Width: 687
Flags: W
LayerCount: 2
Fore
SplineSet
21 1350 m 1
 29 1377 58 1395 74 1409 c 1
 383 1269 540 942 540 571 c 0
 540 200 383 -127 74 -268 c 1
 56 -252 29 -235 21 -208 c 1
 60 -169 103 -141 142 -105 c 1
 316 27 408 284 408 571 c 0
 408 858 316 1115 142 1248 c 1
 103 1283 60 1310 21 1350 c 1
EndSplineSet
Validated: 1
EndChar

StartChar: asterisk
Encoding: 42 42 11
Width: 1218
Flags: W
LayerCount: 2
Fore
SplineSet
699 1206 m 1
 650 820 l 1
 998 998 l 1
 1050 1026 1106 998 1125 945 c 0
 1148 880 1102 833 1058 824 c 2
 678 741 l 1
 936 448 l 1
 977 404 962 342 916 312 c 0
 858 273 802 306 782 346 c 2
 609 695 l 1
 435 346 l 2
 416 306 359 273 301 312 c 0
 255 342 240 404 281 448 c 1
 539 741 l 1
 159 824 l 2
 115 833 69 880 92 945 c 0
 111 998 167 1026 219 998 c 1
 567 820 l 1
 516 1207 l 1
 506 1267 552 1309 609 1309 c 0
 678 1309 706 1250 699 1206 c 1
EndSplineSet
Validated: 33
EndChar

StartChar: plus
Encoding: 43 43 12
Width: 1099
Flags: W
LayerCount: 2
Fore
SplineSet
107 618 m 1
 151 635 198 639 291 639 c 2
 482 639 l 1
 482 828 l 2
 482 906 483 963 490 1012 c 1
 508 1014 529 1015 550 1015 c 0
 571 1015 590 1015 608 1012 c 1
 615 964 617 906 617 830 c 2
 617 639 l 1
 806 639 l 2
 883 639 941 636 990 629 c 1
 992 611 993 591 993 570 c 0
 993 549 992 530 990 512 c 1
 941 506 884 505 806 505 c 2
 617 505 l 1
 617 315 l 2
 617 238 614 181 607 132 c 1
 588 130 568 129 548 129 c 0
 526 129 507 130 489 132 c 1
 483 181 482 237 482 315 c 2
 482 505 l 1
 292 505 l 2
 248 505 203 505 159 505 c 1
 109 535 107 568 107 618 c 1
EndSplineSet
Validated: 1
EndChar

StartChar: comma
Encoding: 44 44 13
Width: 563
Flags: W
LayerCount: 2
Fore
SplineSet
116 -268 m 1
 107 -253 98 -236 98 -208 c 1
 202 -174 318 -153 318 -23 c 1
 299 22 269 47 216 56 c 0
 153 66 118 110 118 174 c 0
 118 252 173 311 258 311 c 0
 364 311 451 217 451 45 c 0
 451 -161 294 -265 116 -268 c 1
EndSplineSet
Validated: 1
EndChar

StartChar: hyphen
Encoding: 45 45 14
Width: 772
Flags: W
LayerCount: 2
Fore
SplineSet
691 402 m 1
 89 402 l 1
 89 530 l 1
 691 530 l 1
 691 402 l 1
EndSplineSet
Validated: 1
EndChar

StartChar: period
Encoding: 46 46 15
Width: 556
Flags: W
LayerCount: 2
Fore
SplineSet
277 251 m 0
 354 251 415 189 415 116 c 0
 415 44 354 -20 277 -20 c 0
 201 -20 140 42 140 116 c 0
 140 189 201 251 277 251 c 0
EndSplineSet
Validated: 1
EndChar

StartChar: slash
Encoding: 47 47 16
Width: 673
Flags: W
LayerCount: 2
Fore
SplineSet
655 1378 m 1
 648 1353 640 1328 633 1304 c 0
 563 1068 409 757 183 89 c 0
 163 31 143 -18 121 -65 c 1
 105 -69 88 -70 73 -70 c 2
 45 -70 l 1
 42 -57 40 -40 40 -21 c 0
 40 20 52 65 69 109 c 2
 438 1089 l 2
 462 1154 500 1258 515 1318 c 0
 521 1345 535 1381 575 1402 c 1
 618 1402 638 1390 655 1378 c 1
EndSplineSet
Validated: 1
EndChar

StartChar: zero
Encoding: 48 48 17
Width: 1127
Flags: W
LayerCount: 2
Fore
SplineSet
557 846 m 0
 373 846 289 666 289 479 c 0
 289 276 389 64 572 64 c 0
 759 64 839 232 839 413 c 0
 839 621 732 846 557 846 c 0
566 -17 m 0
 243 -17 84 214 84 444 c 0
 84 672 243 902 562 902 c 0
 883 902 1044 671 1044 441 c 0
 1044 213 885 -17 566 -17 c 0
EndSplineSet
Validated: 1
EndChar

StartChar: one
Encoding: 49 49 18
Width: 684
Flags: W
LayerCount: 2
Fore
SplineSet
465 833 m 2
 465 129 l 2
 465 13 670 84 670 19 c 0
 670 16 668 10 665 0 c 1
 77 0 l 1
 74 9 73 14 73 17 c 0
 73 76 272 23 272 130 c 2
 272 710 l 2
 272 812 72 774 72 828 c 0
 72 832 74 838 77 846 c 1
 443 846 l 2
 458 846 465 842 465 833 c 2
EndSplineSet
Validated: 1
EndChar

StartChar: two
Encoding: 50 50 19
Width: 766
Flags: W
LayerCount: 2
Fore
SplineSet
230 84 m 1
 520 97 l 2
 571 99 594 103 610 175 c 0
 618 215 640 259 657 259 c 0
 660 259 660 259 671 256 c 1
 654 0 l 1
 76 0 l 1
 65 38 l 1
 136 113 199 188 255 262 c 0
 350 387 446 543 446 657 c 0
 446 778 374 827 289 827 c 0
 229 827 165 804 109 767 c 0
 102 762 96 759 91 759 c 0
 82 759 78 766 78 779 c 0
 78 783 79 787 80 791 c 1
 83 795 l 1
 142 864 263 902 364 902 c 0
 512 902 658 820 658 647 c 0
 658 537 551 396 444 284 c 0
 381 217 310 151 230 84 c 1
EndSplineSet
Validated: 1
EndChar

StartChar: three
Encoding: 51 51 20
Width: 890
Flags: W
LayerCount: 2
Fore
SplineSet
353 -278 m 0
 549 -278 622 -109 622 21 c 0
 622 180 550 324 373 324 c 0
 342 324 309 320 273 311 c 1
 228 363 l 1
 371 411 578 514 578 674 c 0
 578 743 547 807 436 807 c 0
 333 807 234 757 170 717 c 1
 161 710 152 706 145 706 c 0
 132 706 128 717 128 733 c 0
 128 740 129 746 131 749 c 2
 135 754 l 2
 207 845 337 901 459 901 c 0
 647 901 732 794 732 678 c 0
 732 547 623 403 427 387 c 1
 448 387 l 2
 664 387 822 268 822 24 c 0
 822 -144 691 -334 376 -334 c 0
 271 -334 16 -303 16 -135 c 0
 16 -79 66 -29 120 -29 c 0
 168 -29 211 -75 211 -119 c 0
 211 -152 191 -179 191 -202 c 0
 191 -250 301 -278 353 -278 c 0
EndSplineSet
Validated: 1
EndChar

StartChar: four
Encoding: 52 52 21
Width: 921
Flags: W
LayerCount: 2
Fore
SplineSet
500 -168 m 2
 500 0 l 1
 29 0 l 1
 15 47 l 1
 489 850 l 1
 527 858 587 867 693 867 c 1
 693 113 l 1
 826 113 l 2
 849 113 856 82 856 53 c 0
 856 26 849 0 841 0 c 2
 694 0 l 1
 694 -173 l 2
 694 -257 867 -223 867 -267 c 0
 867 -272 866 -278 863 -283 c 1
 325 -283 l 1
 322 -275 321 -270 321 -267 c 0
 321 -215 500 -255 500 -168 c 2
500 113 m 1
 500 713 l 1
 126 113 l 1
 500 113 l 1
EndSplineSet
Validated: 1
EndChar

StartChar: five
Encoding: 53 53 22
Width: 910
Flags: W
LayerCount: 2
Fore
SplineSet
142 223 m 0
 139 221 134 220 127 220 c 0
 115 220 101 224 101 243 c 2
 101 868 l 1
 758 868 l 1
 722 733 l 1
 177 733 l 1
 177 324 l 1
 233 358 325 402 460 402 c 0
 748 402 866 230 866 30 c 0
 866 -138 737 -360 420 -360 c 0
 315 -360 60 -329 60 -161 c 0
 60 -105 110 -55 164 -55 c 0
 212 -55 255 -101 255 -145 c 0
 255 -178 235 -205 235 -228 c 0
 235 -276 345 -304 397 -304 c 0
 593 -304 666 -103 666 27 c 0
 666 176 592 303 404 303 c 0
 291 303 202 250 142 223 c 0
EndSplineSet
Validated: 1
EndChar

StartChar: six
Encoding: 54 54 23
Width: 994
Flags: W
LayerCount: 2
Fore
SplineSet
652 1247 m 1
 663 1250 677 1251 689 1251 c 0
 710 1251 716 1246 716 1223 c 0
 716 1211 715 1204 696 1197 c 0
 547 1138 373 952 320 731 c 1
 396 767 474 783 547 783 c 0
 771 783 944 642 944 389 c 0
 944 147 735 -17 516 -17 c 0
 209 -17 83 195 83 447 c 0
 83 788 315 1199 652 1247 c 1
744 396 m 0
 744 615 644 717 495 717 c 0
 438 717 375 699 311 662 c 1
 295 580 287 525 287 459 c 0
 287 186 394 52 535 52 c 0
 647 52 744 168 744 396 c 0
EndSplineSet
Validated: 1
EndChar

StartChar: seven
Encoding: 55 55 24
Width: 856
Flags: W
LayerCount: 2
Fore
SplineSet
457 -334 m 1
 247 -334 l 1
 286 -196 328 -60 375 73 c 0
 455 300 563 574 688 763 c 1
 256 735 l 2
 185 730 155 726 134 630 c 1
 120 576 93 517 71 517 c 0
 68 517 66 518 51 521 c 1
 74 856 l 2
 74 860 75 867 84 867 c 2
 817 867 l 1
 832 815 l 1
 722 593 629 307 562 75 c 0
 523 -61 488 -197 457 -334 c 1
EndSplineSet
Validated: 1
EndChar

StartChar: eight
Encoding: 56 56 25
Width: 1013
Flags: W
LayerCount: 2
Fore
SplineSet
82 275 m 0
 82 428 209 529 349 623 c 1
 236 706 137 803 137 943 c 0
 137 1091 270 1207 516 1207 c 0
 756 1207 841 1070 841 972 c 0
 841 838 755 759 642 673 c 1
 790 580 935 472 935 264 c 0
 935 124 836 -28 489 -28 c 0
 241 -28 82 107 82 275 c 0
504 41 m 0
 683 41 735 170 735 277 c 0
 735 384 621 457 494 539 c 2
 474 552 l 1
 335 464 214 383 214 277 c 0
 214 133 313 41 504 41 c 0
315 997 m 0
 315 889 410 817 526 746 c 1
 641 821 713 881 713 978 c 0
 713 1062 674 1144 516 1144 c 0
 387 1144 315 1089 315 997 c 0
EndSplineSet
Validated: 1
EndChar

StartChar: nine
Encoding: 57 57 26
Width: 1019
Flags: W
LayerCount: 2
Fore
SplineSet
380 -363 m 1
 369 -366 355 -367 343 -367 c 0
 322 -367 316 -362 316 -339 c 0
 316 -327 317 -321 336 -313 c 0
 485 -255 659 -68 712 153 c 1
 636 117 558 101 485 101 c 0
 261 101 88 242 88 495 c 0
 88 737 297 901 516 901 c 0
 823 901 949 689 949 437 c 0
 949 96 717 -315 380 -363 c 1
288 488 m 0
 288 269 388 167 537 167 c 0
 594 167 657 185 721 222 c 1
 737 304 745 359 745 425 c 0
 745 698 638 832 497 832 c 0
 385 832 288 716 288 488 c 0
EndSplineSet
Validated: 1
EndChar

StartChar: colon
Encoding: 58 58 27
Width: 590
Flags: W
LayerCount: 2
Fore
SplineSet
294 251 m 0
 371 251 433 189 433 116 c 0
 433 44 371 -20 294 -20 c 0
 218 -20 157 42 157 116 c 0
 157 189 218 251 294 251 c 0
294 1039 m 0
 371 1039 433 976 433 904 c 0
 433 832 371 768 294 768 c 0
 218 768 157 830 157 904 c 0
 157 976 218 1039 294 1039 c 0
EndSplineSet
Validated: 1
EndChar

StartChar: semicolon
Encoding: 59 59 28
Width: 594
Flags: W
LayerCount: 2
Fore
SplineSet
294 1039 m 0
 371 1039 433 976 433 904 c 0
 433 832 371 768 294 768 c 0
 218 768 157 830 157 904 c 0
 157 976 218 1039 294 1039 c 0
133 -268 m 1
 124 -253 116 -236 116 -208 c 1
 220 -174 335 -153 335 -23 c 1
 316 22 286 47 233 56 c 0
 171 66 135 110 135 174 c 0
 135 252 190 311 276 311 c 0
 381 311 468 217 468 45 c 0
 468 -163 312 -264 133 -268 c 1
EndSplineSet
Validated: 1
EndChar

StartChar: less
Encoding: 60 60 29
Width: 1049
Flags: W
LayerCount: 2
Fore
SplineSet
908 86 m 1
 663 174 378 397 129 542 c 1
 105 659 l 1
 357 805 676 1054 904 1142 c 1
 923 1110 935 1065 935 1020 c 1
 907 1004 870 978 839 962 c 1
 283 619 l 1
 919 229 l 1
 925 204 927 182 927 157 c 0
 927 129 921 102 908 86 c 1
EndSplineSet
Validated: 1
EndChar

StartChar: equal
Encoding: 61 61 30
Width: 1143
Flags: W
LayerCount: 2
Fore
SplineSet
133 481 m 1
 168 496 213 500 294 500 c 2
 847 500 l 2
 882 500 917 500 952 500 c 1
 998 470 1009 434 1009 388 c 1
 940 371 860 370 743 370 c 2
 296 370 l 2
 261 370 226 370 191 370 c 1
 144 401 133 433 133 481 c 1
133 855 m 1
 168 870 213 874 294 874 c 2
 847 874 l 2
 882 874 917 874 952 874 c 1
 998 844 1009 808 1009 763 c 1
 940 745 860 745 743 745 c 2
 296 745 l 2
 261 745 226 745 191 745 c 1
 144 775 133 807 133 855 c 1
EndSplineSet
Validated: 1
EndChar

StartChar: greater
Encoding: 62 62 31
Width: 1049
Flags: W
LayerCount: 2
Fore
SplineSet
144 1142 m 1
 183 1126 228 1105 270 1079 c 2
 944 658 l 1
 920 542 l 1
 671 397 385 173 140 86 c 1
 127 102 121 129 121 157 c 0
 121 182 123 204 129 229 c 1
 766 618 l 1
 226 954 l 1
 189 972 147 1001 113 1019 c 1
 113 1064 125 1110 144 1142 c 1
EndSplineSet
Validated: 1
EndChar

StartChar: question
Encoding: 63 63 32
Width: 806
Flags: W
LayerCount: 2
Fore
SplineSet
304 236 m 0
 374 236 430 181 430 111 c 0
 430 43 374 -13 304 -13 c 0
 236 -13 181 43 181 111 c 0
 181 181 236 236 304 236 c 0
338 358 m 1
 257 358 l 1
 247 483 225 538 225 576 c 0
 225 585 227 591 232 597 c 1
 258 694 593 765 593 984 c 0
 593 1116 468 1218 352 1218 c 0
 318 1218 287 1206 287 1185 c 1
 226 1172 210 1096 144 1096 c 0
 104 1096 68 1133 68 1179 c 0
 68 1273 163 1329 294 1329 c 0
 534 1329 730 1104 730 920 c 0
 730 891 726 867 719 846 c 1
 676 620 402 587 355 472 c 1
 342 450 337 419 337 382 c 0
 337 374 338 366 338 358 c 1
EndSplineSet
Validated: 1
EndChar

StartChar: at
Encoding: 64 64 33
Width: 1805
Flags: W
LayerCount: 2
Fore
SplineSet
987 958 m 0
 794 958 648 593 648 395 c 0
 648 281 705 198 794 198 c 0
 862 198 963 250 1048 350 c 1
 1090 469 1126 616 1126 743 c 0
 1126 881 1065 958 987 958 c 0
1330 818 m 1
 1219 298 l 2
 1215 278 1213 259 1213 242 c 0
 1213 173 1243 133 1290 133 c 0
 1391 133 1523 266 1567 523 c 1
 1578 580 1585 638 1585 699 c 0
 1585 1085 1313 1326 977 1326 c 0
 548 1326 237 949 237 481 c 0
 237 83 464 -232 914 -232 c 0
 1157 -232 1356 -113 1478 100 c 1
 1510 68 l 1
 1413 -140 1172 -304 888 -304 c 0
 441 -304 92 12 92 476 c 0
 92 955 443 1378 976 1378 c 0
 1448 1378 1701 1065 1701 668 c 0
 1701 372 1511 71 1241 71 c 0
 1163 71 1114 104 1098 170 c 1
 1082 207 1071 247 1068 313 c 1
 1068 313 1067 314 1066 315 c 1
 977 193 852 93 728 93 c 0
 573 93 499 249 499 413 c 0
 499 674 745 991 948 991 c 0
 1003 991 1055 969 1085 921 c 1
 1094 941 1099 964 1105 985 c 1
 1109 985 1113 985 1117 985 c 0
 1217 985 1301 934 1330 818 c 1
EndSplineSet
Validated: 1
EndChar

StartChar: A
Encoding: 65 65 34
Width: 1366
Flags: W
LayerCount: 2
Fore
SplineSet
427 620 m 1
 807 620 l 1
 610 1112 l 1
 427 620 l 1
960 213 m 2
 844 532 l 1
 393 532 l 1
 321 338 l 2
 302 286 277 222 277 175 c 0
 277 97 369 78 468 57 c 1
 468 0 l 1
 -3 0 l 1
 -4 52 l 1
 36 85 120 89 156 163 c 0
 172 195 186 231 202 273 c 2
 576 1231 l 1
 585 1287 586 1311 595 1324 c 1
 640 1324 690 1324 751 1277 c 1
 1210 176 l 2
 1249 83 1339 76 1383 52 c 1
 1381 0 l 1
 799 0 l 1
 797 52 l 1
 879 77 965 109 965 180 c 0
 965 190 964 201 960 213 c 2
EndSplineSet
Validated: 1
EndChar

StartChar: B
Encoding: 66 66 35
Width: 1380
Flags: W
LayerCount: 2
Fore
SplineSet
279 221 m 2
 279 1023 l 2
 279 1067 274 1107 267 1141 c 0
 249 1220 121 1226 63 1251 c 1
 65 1302 l 1
 633 1302 l 2
 697 1302 756 1300 811 1297 c 0
 1106 1279 1226 1152 1226 975 c 0
 1226 811 1107 710 865 669 c 1
 1173 654 1292 493 1292 349 c 0
 1292 148 1112 0 785 0 c 2
 65 0 l 1
 63 52 l 1
 160 81 279 94 279 221 c 2
519 630 m 1
 497 611 494 586 494 542 c 2
 494 274 l 2
 494 175 527 87 604 87 c 2
 736 87 l 2
 746 87 756 87 766 87 c 0
 938 87 1042 195 1042 336 c 0
 1042 470 954 616 692 627 c 0
 636 629 579 630 519 630 c 1
494 1227 m 1
 494 730 l 1
 513 713 541 703 574 700 c 1
 707 700 l 2
 927 700 1027 784 1027 943 c 0
 1027 1109 905 1221 691 1224 c 2
 494 1227 l 1
EndSplineSet
Validated: 1
EndChar

StartChar: C
Encoding: 67 67 36
Width: 1438
Flags: W
LayerCount: 2
Fore
SplineSet
1279 1245 m 1
 1320 943 l 1
 1273 941 l 1
 1234 980 1197 1075 1155 1117 c 0
 1063 1209 951 1250 835 1250 c 0
 580 1250 345 1048 345 680 c 0
 345 315 554 81 877 81 c 0
 1055 81 1203 155 1282 304 c 1
 1331 297 l 1
 1322 108 l 1
 1175 26 967 -26 805 -26 c 0
 414 -26 111 225 111 640 c 0
 111 1022 404 1327 863 1327 c 0
 998 1327 1135 1301 1279 1245 c 1
EndSplineSet
Validated: 1
EndChar

StartChar: D
Encoding: 68 68 37
Width: 1597
Flags: W
LayerCount: 2
Fore
SplineSet
665 1225 m 2
 497 1225 l 1
 497 271 l 2
 497 166 530 85 645 80 c 0
 682 78 723 77 760 77 c 0
 1106 77 1264 352 1264 609 c 0
 1264 954 1084 1225 665 1225 c 2
282 219 m 2
 282 1010 l 2
 282 1053 278 1094 272 1131 c 0
 257 1212 131 1226 58 1251 c 1
 60 1302 l 1
 652 1302 l 2
 1128 1302 1502 1130 1502 658 c 0
 1502 321 1257 0 779 0 c 2
 60 0 l 1
 58 52 l 1
 155 81 282 81 282 219 c 2
EndSplineSet
Validated: 1
EndChar

StartChar: E
Encoding: 69 69 38
Width: 1360
Flags: W
LayerCount: 2
Fore
SplineSet
1236 344 m 1
 1299 342 l 1
 1233 -9 l 1
 1223 -11 1212 -12 1201 -12 c 0
 1163 -12 1124 0 1086 0 c 2
 60 0 l 1
 58 49 l 1
 119 83 238 63 259 151 c 0
 267 184 271 223 271 267 c 2
 271 1024 l 2
 271 1066 267 1102 260 1137 c 0
 243 1216 121 1226 58 1251 c 1
 60 1302 l 1
 1080 1302 l 2
 1113 1302 1151 1312 1188 1312 c 0
 1201 1312 1213 1311 1225 1308 c 1
 1225 997 l 1
 1173 995 l 1
 1119 1047 1112 1182 1023 1207 c 0
 913 1237 763 1235 623 1235 c 0
 573 1235 524 1233 490 1226 c 1
 487 1195 486 1161 486 1123 c 2
 486 717 l 1
 774 717 l 2
 958 717 959 763 1027 893 c 1
 1084 891 l 1
 1084 462 l 1
 1027 459 l 1
 994 548 944 641 813 641 c 2
 486 641 l 1
 486 304 l 2
 486 165 513 74 638 74 c 1
 819 77 l 2
 980 80 1099 76 1165 215 c 0
 1187 262 1211 316 1236 344 c 1
EndSplineSet
Validated: 33
EndChar

StartChar: F
Encoding: 70 70 39
Width: 1274
Flags: W
LayerCount: 2
Fore
SplineSet
1075 901 m 1
 1075 466 l 1
 1056 464 1037 463 1018 463 c 1
 987 527 954 623 885 641 c 0
 829 655 753 656 675 657 c 0
 603 657 496 657 496 657 c 1
 496 258 l 2
 496 215 500 179 509 148 c 1
 527 67 670 77 741 52 c 1
 741 35 740 0 740 0 c 1
 66 0 l 1
 66 0 64 34 64 52 c 1
 128 81 252 69 270 154 c 0
 277 186 281 222 281 261 c 2
 281 1021 l 2
 281 1065 276 1103 269 1137 c 0
 252 1219 126 1226 57 1251 c 1
 57 1267 58 1302 58 1302 c 1
 1016 1302 l 2
 1076 1302 1130 1306 1184 1306 c 0
 1197 1306 1210 1305 1224 1305 c 1
 1227 995 l 1
 1227 995 1196 993 1182 993 c 1
 1112 1070 1094 1208 982 1222 c 0
 906 1232 829 1232 751 1232 c 2
 577 1232 l 2
 492 1232 496 1219 496 1142 c 2
 496 733 l 1
 796 736 l 2
 838 736 874 742 903 749 c 0
 970 765 986 853 1016 903 c 1
 1034 903 1075 901 1075 901 c 1
EndSplineSet
Validated: 33
EndChar

StartChar: G
Encoding: 71 71 40
Width: 1558
Flags: W
LayerCount: 2
Fore
SplineSet
1365 463 m 2
 1365 95 l 1
 1231 25 1040 -26 849 -26 c 0
 393 -26 91 237 91 638 c 0
 91 1055 457 1327 886 1327 c 0
 1044 1327 1161 1305 1325 1247 c 1
 1355 945 l 1
 1334 943 1314 942 1297 942 c 1
 1260 974 1231 1062 1199 1100 c 0
 1106 1211 987 1250 860 1250 c 0
 551 1250 330 1003 330 675 c 0
 330 322 547 62 866 62 c 0
 973 62 1054 78 1133 127 c 1
 1141 195 1145 277 1145 381 c 0
 1145 439 1137 498 1117 553 c 0
 1093 621 983 609 929 632 c 1
 929 649 931 684 931 684 c 1
 1531 684 l 1
 1531 684 1533 648 1533 632 c 1
 1451 601 1365 587 1365 463 c 2
EndSplineSet
Validated: 1
EndChar

StartChar: H
Encoding: 72 72 41
Width: 1695
Flags: W
LayerCount: 2
Fore
SplineSet
1204 625 m 1
 490 625 l 1
 490 255 l 2
 490 213 494 177 503 147 c 1
 521 68 653 76 712 52 c 1
 712 36 710 0 710 0 c 1
 66 0 l 1
 66 0 63 35 63 52 c 1
 131 81 251 71 266 156 c 0
 272 189 275 225 275 265 c 2
 275 1038 l 2
 275 1079 271 1115 262 1147 c 1
 245 1224 122 1225 64 1251 c 1
 64 1266 66 1302 66 1302 c 1
 709 1302 l 1
 709 1302 711 1266 711 1250 c 1
 656 1225 524 1230 505 1149 c 1
 495 1118 490 1081 490 1037 c 2
 490 712 l 1
 1204 712 l 1
 1204 1047 l 2
 1204 1083 1199 1114 1192 1146 c 0
 1174 1222 1053 1225 1001 1251 c 1
 1001 1266 1003 1302 1003 1302 c 1
 1630 1302 l 1
 1630 1302 1632 1266 1632 1250 c 1
 1568 1227 1447 1222 1430 1142 c 0
 1422 1109 1419 1072 1419 1030 c 2
 1419 267 l 2
 1419 225 1422 188 1429 155 c 1
 1442 74 1564 76 1633 52 c 1
 1633 36 1632 0 1632 0 c 1
 1003 0 l 1
 1003 0 1001 35 1001 52 c 1
 1054 81 1176 69 1192 152 c 1
 1200 182 1204 215 1204 252 c 2
 1204 625 l 1
EndSplineSet
Validated: 1
EndChar

StartChar: I
Encoding: 73 73 42
Width: 766
Flags: W
LayerCount: 2
Fore
SplineSet
491 1081 m 2
 491 260 l 2
 491 226 493 195 497 166 c 0
 510 73 647 80 721 53 c 1
 721 37 719 0 719 0 c 1
 55 0 l 1
 55 0 54 36 54 52 c 1
 108 77 235 64 254 132 c 1
 272 169 276 216 276 278 c 2
 276 1030 l 2
 276 1088 269 1134 250 1169 c 1
 230 1235 100 1221 50 1251 c 1
 50 1266 52 1302 52 1302 c 1
 715 1302 l 1
 715 1302 717 1267 717 1250 c 1
 631 1220 491 1219 491 1081 c 2
EndSplineSet
Validated: 1
EndChar

StartChar: J
Encoding: 74 74 43
Width: 726
Flags: W
LayerCount: 2
Fore
SplineSet
49 1302 m 1
 715 1302 l 1
 715 1302 716 1266 716 1251 c 1
 660 1226 523 1231 503 1155 c 0
 494 1122 489 1086 489 1044 c 2
 489 170 l 2
 489 -202 326 -333 142 -333 c 0
 15 -333 -58 -275 -58 -207 c 0
 -58 -159 -24 -122 31 -122 c 0
 136 -122 116 -251 195 -251 c 0
 261 -251 274 -142 274 67 c 2
 274 1035 l 2
 274 1078 270 1115 262 1148 c 0
 244 1227 110 1227 46 1250 c 1
 46 1267 49 1302 49 1302 c 1
EndSplineSet
Validated: 1
EndChar

StartChar: K
Encoding: 75 75 44
Width: 1568
Flags: W
LayerCount: 2
Fore
SplineSet
488 1166 m 2
 488 716 l 1
 574 716 l 1
 1070 1178 l 1
 1073 1187 1074 1194 1074 1200 c 0
 1074 1277 881 1228 881 1284 c 0
 881 1288 883 1293 886 1302 c 1
 1430 1302 l 1
 1434 1284 l 1
 1434 1265 1365 1247 1292 1231 c 0
 1224 1216 1178 1195 1150 1172 c 1
 742 784 l 1
 1230 130 l 1
 1270 86 1474 56 1474 18 c 0
 1474 11 1473 5 1470 0 c 1
 786 0 l 1
 781 11 780 14 780 17 c 0
 780 67 954 33 954 102 c 0
 954 106 950 117 937 134 c 1
 578 660 l 1
 488 660 l 1
 488 124 l 2
 488 9 725 83 725 19 c 0
 725 16 723 10 720 0 c 1
 50 0 l 1
 47 9 46 14 46 17 c 0
 46 76 273 23 273 130 c 2
 273 1166 l 2
 273 1268 45 1230 45 1284 c 0
 45 1288 47 1293 50 1302 c 1
 716 1302 l 1
 719 1292 720 1286 720 1285 c 0
 720 1227 488 1271 488 1166 c 2
EndSplineSet
Validated: 1
EndChar

StartChar: L
Encoding: 76 76 45
Width: 1273
Flags: W
LayerCount: 2
Fore
SplineSet
276 240 m 2
 276 1034 l 2
 276 1076 272 1113 265 1147 c 0
 248 1228 139 1221 46 1251 c 1
 46 1266 48 1302 48 1302 c 1
 723 1302 l 1
 723 1302 724 1267 724 1250 c 1
 653 1221 517 1229 502 1148 c 1
 494 1115 492 1078 492 1040 c 2
 492 312 l 2
 492 201 507 102 593 83 c 1
 627 78 666 76 709 76 c 2
 857 77 l 2
 1002 78 1082 97 1148 217 c 1
 1170 264 1196 317 1222 344 c 1
 1240 344 1282 342 1282 342 c 1
 1219 -11 l 1
 1219 -11 1095 0 1000 0 c 2
 47 0 l 1
 47 0 45 36 45 54 c 1
 156 93 276 88 276 240 c 2
EndSplineSet
Validated: 1
EndChar

StartChar: M
Encoding: 77 77 46
Width: 1934
Flags: W
LayerCount: 2
Fore
SplineSet
1617 1065 m 2
 1688 271 l 2
 1694 207 1709 155 1744 117 c 1
 1762 61 1880 78 1909 52 c 1
 1909 37 1909 19 1907 0 c 1
 1284 0 l 1
 1282 18 1282 36 1282 52 c 1
 1359 79 1476 96 1476 211 c 0
 1476 215 1476 219 1476 224 c 2
 1414 1068 l 1
 1269 672 1054 307 959 0 c 1
 880 0 l 1
 790 278 542 683 408 1029 c 0
 407 1029 406 1029 405 1029 c 2
 342 324 l 1
 342 292 340 259 340 232 c 0
 340 95 445 84 531 52 c 1
 531 37 530 19 529 0 c 1
 45 0 l 1
 44 18 43 36 43 52 c 1
 110 80 232 87 246 220 c 2
 322 968 l 1
 326 1037 329 1073 329 1096 c 0
 329 1221 214 1213 144 1251 c 1
 144 1265 145 1283 146 1302 c 1
 535 1302 l 1
 614 964 856 589 982 267 c 1
 1126 569 1232 809 1312 1002 c 0
 1361 1119 1386 1211 1387 1302 c 1
 1799 1302 l 1
 1800 1283 1801 1265 1801 1250 c 1
 1715 1220 1616 1198 1616 1082 c 0
 1616 1076 1616 1071 1617 1065 c 2
EndSplineSet
Validated: 1
EndChar

StartChar: N
Encoding: 78 78 47
Width: 1661
Flags: W
LayerCount: 2
Fore
SplineSet
280 239 m 1
 291 1091 l 1
 216 1214 113 1218 35 1250 c 1
 36 1302 l 1
 385 1302 l 1
 1332 329 l 1
 1326 958 l 2
 1325 1020 1320 1082 1299 1131 c 1
 1279 1222 1153 1219 1094 1249 c 1
 1094 1265 1095 1281 1097 1302 c 1
 1623 1302 l 1
 1624 1285 1624 1267 1624 1248 c 1
 1565 1221 1446 1209 1428 1101 c 1
 1419 1059 1413 1011 1413 959 c 2
 1408 353 l 1
 1408 187 1428 114 1431 -9 c 1
 1418 -14 1401 -16 1382 -16 c 0
 1361 -16 1342 -14 1325 -9 c 1
 1265 65 1211 126 1161 178 c 2
 361 1009 l 1
 371 307 l 2
 372 256 378 211 388 172 c 1
 409 69 551 86 615 53 c 1
 615 37 614 20 612 0 c 1
 48 0 l 1
 46 17 46 35 46 54 c 1
 149 83 280 91 280 239 c 1
EndSplineSet
Validated: 1
EndChar

StartChar: O
Encoding: 79 79 48
Width: 1580
Flags: W
LayerCount: 2
Fore
SplineSet
333 720 m 0
 333 340 538 51 825 51 c 0
 1064 51 1246 248 1246 585 c 0
 1246 958 1048 1250 757 1250 c 0
 529 1250 333 1071 333 720 c 0
100 637 m 0
 100 1095 448 1327 792 1327 c 0
 1166 1327 1479 1063 1479 648 c 0
 1479 240 1155 -26 772 -26 c 0
 423 -26 100 224 100 637 c 0
EndSplineSet
Validated: 1
EndChar

StartChar: P
Encoding: 80 80 49
Width: 1294
Flags: W
LayerCount: 2
Fore
SplineSet
274 222 m 2
 274 1031 l 2
 274 1073 269 1109 261 1144 c 0
 243 1220 118 1227 63 1251 c 1
 63 1267 65 1302 65 1302 c 1
 515 1302 l 2
 848 1302 1241 1291 1241 939 c 0
 1241 692 1058 548 780 548 c 0
 702 548 572 580 572 614 c 1
 574 631 604 632 631 632 c 0
 655 632 682 629 705 629 c 0
 905 629 1008 747 1008 925 c 0
 1008 1146 811 1232 587 1232 c 0
 555 1232 522 1230 490 1227 c 1
 490 275 l 2
 490 228 493 188 501 152 c 0
 518 66 646 81 717 52 c 1
 717 35 715 0 715 0 c 1
 65 0 l 1
 65 0 62 35 62 52 c 1
 161 81 274 96 274 222 c 2
EndSplineSet
Validated: 1
EndChar

StartChar: Q
Encoding: 81 81 50
Width: 1580
Flags: W
LayerCount: 2
Fore
SplineSet
334 729 m 0
 334 314 554 51 823 51 c 0
 1052 51 1246 233 1246 587 c 0
 1246 953 1048 1250 758 1250 c 0
 523 1250 334 1052 334 729 c 0
1578 -213 m 1
 1590 -285 l 1
 1539 -302 1461 -314 1386 -314 c 0
 1250 -314 1168 -293 1066 -244 c 1
 961 -195 732 -73 638 -11 c 1
 326 71 100 286 100 641 c 0
 100 1061 415 1327 792 1327 c 0
 1166 1327 1479 1063 1479 651 c 0
 1479 295 1229 51 912 -11 c 1
 1177 -138 1296 -188 1578 -213 c 1
EndSplineSet
Validated: 1
EndChar

StartChar: R
Encoding: 82 82 51
Width: 1413
Flags: W
LayerCount: 2
Fore
SplineSet
556 632 m 2
 493 636 l 1
 493 251 l 2
 493 212 497 179 506 149 c 1
 522 67 650 81 709 52 c 1
 709 35 707 0 707 0 c 1
 74 0 l 1
 74 0 72 35 72 52 c 1
 123 81 241 65 258 138 c 1
 274 176 278 223 278 277 c 2
 278 1035 l 2
 278 1074 273 1109 266 1141 c 0
 248 1218 127 1226 72 1251 c 1
 72 1267 74 1303 74 1303 c 1
 506 1303 l 2
 581 1303 658 1301 734 1299 c 0
 1053 1288 1223 1166 1223 970 c 0
 1223 804 1085 680 859 647 c 1
 974 499 1100 330 1213 193 c 0
 1294 95 1402 66 1446 54 c 1
 1445 -2 l 1
 1377 -18 1319 -26 1269 -26 c 0
 1013 -26 893 242 699 542 c 1
 657 601 647 626 556 632 c 2
493 1227 m 1
 493 703 l 1
 567 705 635 708 699 712 c 0
 898 724 990 807 990 958 c 0
 990 1109 889 1213 678 1223 c 0
 621 1225 559 1227 493 1227 c 1
EndSplineSet
Validated: 1
EndChar

StartChar: S
Encoding: 83 83 52
Width: 1142
Flags: W
LayerCount: 2
Fore
SplineSet
111 77 m 1
 120 400 l 1
 141 402 161 402 179 402 c 1
 194 378 207 332 217 297 c 0
 257 151 401 58 574 58 c 0
 724 58 846 141 846 268 c 0
 846 311 831 356 780 406 c 0
 662 521 351 640 212 795 c 0
 163 849 137 912 137 991 c 0
 137 1209 334 1327 587 1327 c 0
 714 1327 852 1294 968 1234 c 1
 981 951 l 1
 959 950 938 949 919 949 c 1
 906 973 892 1017 881 1051 c 0
 840 1182 712 1250 571 1250 c 0
 438 1250 324 1179 324 1075 c 0
 324 935 559 836 766 709 c 0
 951 595 1041 501 1041 344 c 0
 1041 105 830 -26 561 -26 c 0
 410 -26 215 18 111 77 c 1
EndSplineSet
Validated: 1
EndChar

StartChar: T
Encoding: 84 84 53
Width: 1395
Flags: W
LayerCount: 2
Fore
SplineSet
586 241 m 2
 586 1228 l 1
 488 1226 372 1230 294 1220 c 1
 188 1205 151 1068 80 981 c 1
 66 981 51 981 34 982 c 1
 59 1308 l 1
 59 1308 217 1302 291 1302 c 2
 1198 1302 l 2
 1209 1302 1333 1310 1333 1310 c 1
 1365 982 l 1
 1349 981 1333 981 1317 981 c 1
 1246 1068 1211 1206 1109 1220 c 0
 1078 1224 1043 1226 1005 1226 c 2
 801 1228 l 1
 801 241 l 2
 801 90 871 72 1027 52 c 1
 1027 36 1027 19 1025 0 c 1
 363 0 l 1
 362 17 361 34 361 52 c 1
 457 85 586 91 586 241 c 2
EndSplineSet
Validated: 1
EndChar

StartChar: U
Encoding: 85 85 54
Width: 1639
Flags: W
LayerCount: 2
Fore
SplineSet
29 1302 m 1
 689 1302 l 1
 690 1283 691 1266 691 1250 c 1
 623 1225 488 1228 471 1145 c 0
 463 1110 459 1070 459 1023 c 2
 459 596 l 2
 459 542 462 491 467 441 c 0
 490 214 657 82 888 82 c 0
 1092 82 1288 198 1310 475 c 0
 1314 520 1317 565 1317 613 c 2
 1317 1006 l 2
 1317 1052 1313 1095 1306 1134 c 0
 1289 1221 1157 1225 1083 1251 c 1
 1083 1266 1083 1283 1084 1302 c 1
 1623 1302 l 1
 1624 1283 1625 1266 1625 1250 c 1
 1576 1223 1436 1234 1415 1150 c 0
 1405 1113 1399 1071 1399 1022 c 2
 1399 609 l 2
 1399 559 1397 510 1392 463 c 1
 1365 106 1105 -26 821 -26 c 0
 481 -26 277 152 251 401 c 0
 247 447 244 494 244 542 c 2
 244 1024 l 2
 244 1065 241 1104 234 1139 c 0
 219 1216 95 1226 26 1251 c 1
 26 1267 27 1283 29 1302 c 1
EndSplineSet
Validated: 1
EndChar

StartChar: V
Encoding: 86 86 55
Width: 1405
Flags: W
LayerCount: 2
Fore
SplineSet
432 1047 m 2
 695 459 l 2
 725 391 752 320 779 251 c 1
 811 338 842 416 876 498 c 2
 1033 883 l 2
 1067 966 1102 1053 1102 1114 c 0
 1102 1210 1033 1199 905 1240 c 1
 903 1248 902 1258 902 1269 c 0
 902 1280 903 1291 905 1302 c 1
 1421 1302 l 1
 1423 1285 1424 1266 1424 1247 c 1
 1390 1223 1335 1201 1295 1181 c 1
 1205 1145 1168 974 1108 833 c 2
 869 271 l 2
 834 189 798 91 770 -11 c 1
 756 -16 740 -19 721 -19 c 0
 706 -19 692 -19 680 -17 c 1
 659 31 623 131 589 206 c 2
 188 1088 l 2
 130 1216 63 1223 -10 1245 c 1
 -8 1302 l 1
 581 1302 l 1
 582 1284 587 1258 587 1242 c 1
 512 1217 402 1209 402 1138 c 0
 402 1115 415 1084 432 1047 c 2
EndSplineSet
Validated: 1
EndChar

StartChar: W
Encoding: 87 87 56
Width: 1916
Flags: HW
LayerCount: 2
Fore
SplineSet
636 433 m 2
 665 353 l 1
 934 1071 l 1
 917 1111 902 1152 885 1192 c 1
 858 1216 700 1258 700 1282 c 1
 707 1302 l 1
 1349 1302 l 1
 1352 1291 1355 1284 1355 1282 c 0
 1355 1211 1163 1274 1163 1188 c 0
 1163 1183 1163 1178 1164 1173 c 0
 1165 1167 1167 1162 1169 1157 c 0
 1178 1131 1185 1103 1194 1076 c 0
 1228 969 1261 862 1296 756 c 0
 1339 622 1379 488 1424 355 c 1
 1485 543 1545 732 1605 920 c 0
 1629 997 1686 1114 1686 1187 c 0
 1686 1271 1586 1217 1485 1271 c 1
 1481 1272 1479 1276 1479 1282 c 0
 1479 1286 1481 1293 1485 1302 c 1
 2002 1302 l 1
 2014 1299 2020 1295 2020 1291 c 0
 2020 1237 1777 1258 1746 1157 c 0
 1730 1103 1713 1046 1696 992 c 2
 1447 166 l 1
 1397 1 l 1
 1392 -12 1378 -19 1355 -19 c 0
 1331 -19 1317 -12 1312 1 c 0
 1293 56 1274 111 1256 167 c 1
 972 994 l 1
 886 746 799 498 713 249 c 0
 684 167 656 84 627 1 c 0
 622 -13 608 -21 585 -21 c 0
 530 -21 505 101 482 161 c 2
 150 1048 l 1
 120 1128 l 1
 84 1227 -47 1224 -103 1280 c 1
 -96 1302 l 1
 547 1302 l 1
 550 1291 552 1284 552 1282 c 0
 552 1217 375 1270 375 1182 c 0
 375 1174 377 1165 380 1157 c 2
 551 674 l 2
 580 594 607 513 636 433 c 2
EndSplineSet
Validated: 1
EndChar

StartChar: X
Encoding: 88 88 57
Width: 1463
Flags: W
LayerCount: 2
Fore
SplineSet
1053 1029 m 2
 811 725 l 1
 1182 236 l 2
 1257 137 1292 100 1372 78 c 0
 1403 69 1444 59 1462 52 c 1
 1462 36 1461 19 1460 0 c 1
 808 0 l 1
 806 17 806 34 806 52 c 1
 881 69 962 98 962 156 c 0
 962 171 956 197 942 216 c 2
 679 565 l 1
 456 294 l 2
 417 246 377 182 377 144 c 0
 377 94 460 73 541 57 c 1
 542 48 542 39 542 30 c 0
 542 21 542 11 541 0 c 1
 20 0 l 1
 18 17 18 34 18 52 c 1
 72 73 179 94 245 165 c 0
 267 190 292 219 319 252 c 2
 632 628 l 1
 273 1097 l 2
 190 1206 89 1220 21 1246 c 1
 21 1262 21 1279 23 1302 c 1
 665 1302 l 1
 666 1285 667 1267 667 1250 c 1
 590 1234 512 1198 512 1144 c 0
 512 1129 519 1115 529 1095 c 1
 762 788 l 1
 945 1014 l 2
 995 1076 1007 1096 1007 1130 c 0
 1007 1183 951 1228 861 1246 c 1
 859 1254 859 1263 859 1273 c 0
 859 1281 859 1291 861 1302 c 1
 1374 1302 l 1
 1376 1285 1376 1267 1376 1250 c 1
 1334 1233 1211 1208 1136 1126 c 0
 1110 1098 1082 1066 1053 1029 c 2
EndSplineSet
Validated: 1
EndChar

StartChar: Y
Encoding: 89 89 58
Width: 1330
Flags: W
LayerCount: 2
Fore
SplineSet
1103 1086 m 1
 775 583 l 1
 775 246 l 2
 775 208 780 175 789 146 c 1
 806 69 941 76 992 52 c 1
 992 36 990 0 990 0 c 1
 344 0 l 1
 344 0 342 35 342 52 c 1
 393 81 528 65 546 148 c 1
 555 178 560 214 560 254 c 2
 560 562 l 1
 195 1134 l 2
 160 1188 46 1240 -3 1251 c 1
 -3 1266 -3 1283 -2 1302 c 1
 618 1302 l 1
 619 1285 620 1267 620 1250 c 1
 542 1236 459 1201 459 1142 c 1
 458 1131 464 1108 471 1097 c 2
 744 667 l 1
 953 1006 l 1
 983 1052 1004 1102 1004 1140 c 0
 1004 1205 923 1220 839 1246 c 1
 837 1254 837 1263 837 1273 c 0
 837 1281 837 1291 839 1302 c 1
 1339 1302 l 1
 1340 1285 1341 1267 1341 1250 c 1
 1293 1230 1180 1201 1103 1086 c 1
EndSplineSet
Validated: 1
EndChar

StartChar: Z
Encoding: 90 90 59
Width: 1285
Flags: W
LayerCount: 2
Fore
SplineSet
1209 357 m 1
 1149 -9 l 1
 1135 -9 1122 -10 1108 -10 c 0
 1082 -10 1055 -9 1027 -9 c 0
 1020 -9 981 0 964 0 c 2
 67 0 l 1
 63 43 l 1
 843 1119 l 2
 868 1153 897 1189 919 1224 c 1
 893 1226 864 1227 833 1227 c 2
 547 1225 l 2
 394 1224 326 1222 266 1112 c 0
 240 1064 211 1007 186 972 c 1
 170 972 154 973 133 975 c 1
 160 1306 l 1
 220 1309 277 1302 335 1302 c 2
 1178 1302 l 1
 1189 1297 1191 1285 1191 1272 c 0
 1191 1270 1191 1268 1190 1266 c 1
 1190 1245 l 1
 425 198 l 2
 398 162 373 125 351 89 c 1
 376 81 407 74 441 74 c 0
 600 76 780 74 900 92 c 0
 970 103 1011 129 1047 203 c 1
 1077 255 1112 317 1153 359 c 1
 1169 359 1186 357 1209 357 c 1
EndSplineSet
Validated: 33
EndChar

StartChar: bracketleft
Encoding: 91 91 60
Width: 723
Flags: W
LayerCount: 2
Fore
SplineSet
403 1268 m 1
 403 1026 396 762 396 440 c 0
 396 272 397 92 398 -104 c 1
 419 -174 461 -196 551 -196 c 0
 601 -196 666 -193 712 -193 c 1
 718 -208 744 -232 744 -276 c 1
 728 -306 687 -306 658 -306 c 0
 592 -306 493 -300 329 -300 c 0
 307 -300 283 -298 261 -293 c 1
 245 -263 239 -225 239 -184 c 0
 239 -165 241 -145 241 -126 c 0
 241 739 238 1048 238 1359 c 0
 238 1389 253 1442 288 1466 c 1
 426 1466 549 1468 679 1468 c 0
 727 1468 754 1451 770 1437 c 1
 770 1408 759 1374 735 1358 c 1
 556 1358 462 1362 403 1268 c 1
EndSplineSet
Validated: 33
EndChar

StartChar: backslash
Encoding: 92 92 61
Width: 689
Flags: W
LayerCount: 2
Fore
SplineSet
17 1378 m 1
 34 1390 54 1402 97 1402 c 1
 146 1356 166 1295 182 1243 c 1
 182 1225 207 1166 216 1142 c 2
 617 72 l 2
 620 66 621 60 621 54 c 1
 636 -11 640 -70 644 -117 c 1
 616 -117 l 2
 600 -117 583 -116 567 -112 c 1
 544 -62 523 -9 502 53 c 0
 286 693 122 1022 63 1229 c 1
 47 1279 32 1328 17 1378 c 1
EndSplineSet
Validated: 1
EndChar

StartChar: bracketright
Encoding: 93 93 62
Width: 723
Flags: W
LayerCount: 2
Fore
SplineSet
324 1177 m 1
 324 1254 l 1
 322 1348 168 1359 64 1359 c 0
 50 1359 36 1357 24 1358 c 1
 -11 1358 -33 1377 -44 1391 c 1
 -44 1421 -34 1453 -2 1468 c 1
 144 1468 283 1466 438 1466 c 1
 473 1442 487 1389 487 1359 c 0
 487 1065 484 1038 484 631 c 0
 484 393 487 124 487 -196 c 0
 487 -240 464 -275 445 -300 c 1
 249 -300 117 -306 19 -306 c 1
 5 -291 -19 -275 -19 -230 c 1
 4 -202 52 -193 80 -193 c 0
 104 -193 147 -196 175 -196 c 0
 264 -196 307 -174 328 -104 c 1
 329 87 330 262 330 425 c 0
 330 633 328 832 327 1008 c 1
 324 1177 l 1
EndSplineSet
Validated: 1
EndChar

StartChar: asciicircum
Encoding: 94 94 63
Width: 1192
Flags: W
LayerCount: 2
Fore
SplineSet
653 1369 m 1
 734 1226 804 1098 948 826 c 0
 964 796 981 768 994 738 c 1
 970 728 939 722 899 722 c 1
 880 744 844 792 824 825 c 2
 594 1193 l 1
 477 1014 372 831 288 722 c 1
 248 722 218 728 194 738 c 1
 207 768 223 797 240 827 c 0
 330 992 414 1145 496 1300 c 0
 515 1336 544 1369 573 1392 c 1
 603 1392 632 1382 653 1369 c 1
EndSplineSet
Validated: 1
EndChar

StartChar: underscore
Encoding: 95 95 64
Width: 935
Flags: W
LayerCount: 2
Fore
SplineSet
893 -129 m 1
 857 -146 810 -147 726 -147 c 2
 265 -147 l 2
 211 -147 156 -147 102 -147 c 1
 54 -127 44 -105 44 -68 c 1
 80 -53 126 -49 209 -49 c 2
 671 -49 l 2
 726 -49 780 -49 835 -49 c 1
 881 -69 893 -94 893 -129 c 1
EndSplineSet
Validated: 1
EndChar

StartChar: quoteleft
Encoding: 8216 8216 65
Width: 544
Flags: W
LayerCount: 2
Fore
SplineSet
382 1327 m 1
 398 1314 412 1297 418 1271 c 1
 334 1223 239 1192 239 1088 c 1
 258 1061 284 1042 325 1035 c 0
 396 1022 430 984 430 922 c 0
 430 848 374 792 291 792 c 0
 183 792 110 877 110 998 c 0
 110 1142 209 1296 382 1327 c 1
EndSplineSet
Validated: 1
EndChar

StartChar: a
Encoding: 97 97 66
Width: 985
Flags: W
LayerCount: 2
Fore
SplineSet
621 200 m 1
 621 455 l 1
 375 371 279 326 279 220 c 0
 279 146 320 93 403 93 c 0
 475 93 552 132 621 200 c 1
621 514 m 1
 621 609 l 2
 621 633 621 658 620 682 c 0
 616 794 533 852 438 852 c 0
 370 852 279 811 279 762 c 0
 279 733 313 694 313 665 c 0
 313 604 269 572 222 572 c 0
 169 572 113 613 113 698 c 0
 113 830 284 926 483 926 c 0
 668 926 779 866 798 716 c 0
 804 662 808 603 808 541 c 2
 808 205 l 2
 808 127 825 99 849 99 c 0
 874 99 907 130 937 168 c 1
 979 123 l 1
 904 -2 849 -20 779 -20 c 0
 685 -20 629 45 624 129 c 1
 531 28 423 -20 312 -20 c 0
 167 -20 82 66 82 178 c 0
 82 359 239 415 621 514 c 1
EndSplineSet
Validated: 1
EndChar

StartChar: b
Encoding: 98 98 67
Width: 1134
Flags: W
LayerCount: 2
Fore
SplineSet
344 665 m 1
 344 134 l 2
 344 81 355 65 555 65 c 0
 791 65 866 258 866 412 c 0
 866 637 758 794 589 794 c 0
 487 794 400 733 344 665 c 1
158 134 m 2
 158 1163 l 1
 130 1208 -10 1254 -10 1254 c 1
 -8 1288 l 1
 258 1367 l 1
 344 1376 l 1
 344 758 l 1
 436 857 535 926 667 926 c 0
 904 926 1052 691 1052 462 c 0
 1052 180 847 -13 572 -13 c 0
 269 -13 158 0 158 134 c 2
EndSplineSet
Validated: 1
EndChar

StartChar: c
Encoding: 99 99 68
Width: 952
Flags: W
LayerCount: 2
Fore
SplineSet
849 211 m 1
 881 188 l 1
 838 49 680 -20 527 -20 c 0
 241 -20 84 203 84 448 c 0
 84 713 277 926 574 926 c 0
 741 926 892 868 892 737 c 0
 892 670 831 642 797 642 c 0
 647 642 792 852 559 852 c 0
 408 852 267 734 267 502 c 0
 267 298 377 120 584 120 c 0
 705 120 770 149 849 211 c 1
EndSplineSet
Validated: 1
EndChar

StartChar: d
Encoding: 100 100 69
Width: 1180
Flags: W
LayerCount: 2
Fore
SplineSet
799 222 m 1
 799 510 l 2
 799 625 788 706 713 772 c 0
 661 818 598 846 534 846 c 0
 370 846 266 671 266 477 c 0
 266 296 362 99 562 99 c 0
 669 99 748 154 799 222 c 1
799 849 m 1
 799 1175 l 1
 770 1220 629 1266 629 1266 c 1
 631 1301 l 1
 913 1369 l 1
 985 1376 l 1
 985 199 l 2
 985 103 1089 95 1147 87 c 1
 1147 32 l 1
 880 -12 l 1
 813 -12 l 1
 804 143 l 1
 710 35 608 -20 488 -20 c 0
 261 -20 80 153 80 414 c 0
 80 714 279 923 544 923 c 0
 634 923 714 889 799 849 c 1
EndSplineSet
Validated: 1
EndChar

StartChar: e
Encoding: 101 101 70
Width: 958
Flags: W
LayerCount: 2
Fore
SplineSet
266 585 m 1
 619 594 l 2
 646 595 672 600 693 610 c 1
 684 765 621 859 500 859 c 0
 366 859 283 735 266 585 c 1
891 526 m 1
 259 526 l 1
 258 516 258 506 258 497 c 0
 258 235 414 121 597 121 c 0
 683 121 762 145 840 193 c 1
 869 165 l 1
 819 44 652 -20 522 -20 c 0
 267 -20 82 169 82 447 c 0
 82 734 291 926 523 926 c 0
 716 926 854 801 880 620 c 1
 887 591 891 562 891 535 c 0
 891 532 891 529 891 526 c 1
EndSplineSet
Validated: 1
EndChar

StartChar: f
Encoding: 102 102 71
Width: 647
Flags: W
LayerCount: 2
Fore
SplineSet
627 818 m 1
 397 818 l 1
 397 259 l 2
 397 198 401 151 419 112 c 1
 436 61 543 71 595 50 c 1
 595 35 595 19 594 0 c 1
 48 0 l 1
 47 19 46 35 46 50 c 1
 83 71 175 62 190 113 c 1
 205 141 211 175 211 215 c 2
 211 818 l 1
 53 818 l 1
 53 899 l 1
 111 899 l 2
 183 899 206 897 207 971 c 0
 212 1231 341 1374 567 1374 c 0
 700 1374 809 1323 809 1230 c 0
 809 1179 775 1140 715 1140 c 0
 607 1140 629 1302 524 1302 c 0
 438 1302 397 1249 397 1021 c 2
 397 899 l 1
 627 899 l 1
 627 818 l 1
EndSplineSet
Validated: 33
EndChar

StartChar: g
Encoding: 103 103 72
Width: 999
Flags: W
LayerCount: 2
Fore
SplineSet
560 1 m 2
 481 2 l 2
 423 3 366 8 303 15 c 1
 233 -45 206 -94 206 -137 c 0
 206 -242 385 -268 468 -268 c 0
 602 -268 803 -223 803 -118 c 0
 803 -47 730 -2 560 1 c 2
288 634 m 0
 288 491 346 374 477 374 c 0
 589 374 637 466 637 597 c 0
 637 763 554 852 449 852 c 0
 359 852 288 764 288 634 c 0
941 888 m 1
 926 761 l 1
 873 777 733 803 733 803 c 1
 733 803 812 714 812 626 c 0
 812 415 630 308 458 308 c 0
 420 308 382 314 330 326 c 1
 299 302 259 292 259 243 c 0
 259 174 404 189 656 171 c 0
 817 159 939 87 939 -52 c 0
 939 -238 711 -351 442 -351 c 0
 204 -351 76 -263 76 -184 c 0
 76 -128 119 -57 229 24 c 1
 156 54 110 103 110 163 c 0
 110 239 180 297 275 352 c 1
 172 410 110 498 110 613 c 0
 110 796 256 926 457 926 c 0
 542 926 614 906 677 873 c 1
 677 873 803 892 894 892 c 0
 917 892 941 888 941 888 c 1
EndSplineSet
Validated: 1
EndChar

StartChar: h
Encoding: 104 104 73
Width: 1188
Flags: W
LayerCount: 2
Fore
SplineSet
1012 568 m 2
 1012 221 l 2
 1012 188 1016 158 1024 133 c 1
 1038 67 1131 72 1164 50 c 1
 1164 34 1162 0 1162 0 c 1
 670 0 l 1
 670 0 668 34 668 50 c 1
 710 69 804 73 817 136 c 0
 822 160 826 187 826 214 c 2
 826 577 l 2
 826 713 774 818 634 818 c 0
 531 818 440 752 375 684 c 1
 375 233 l 2
 375 196 379 164 384 137 c 0
 397 70 502 71 549 50 c 1
 549 34 548 0 548 0 c 1
 15 0 l 1
 15 0 13 34 13 50 c 1
 36 73 141 61 154 109 c 1
 180 140 188 186 188 233 c 0
 188 543 188 854 188 1164 c 1
 159 1210 16 1258 16 1258 c 1
 17 1293 l 1
 303 1369 l 1
 375 1376 l 1
 375 768 l 1
 470 862 562 926 705 926 c 0
 879 926 1012 821 1012 568 c 2
EndSplineSet
Validated: 1
EndChar

StartChar: i
Encoding: 105 105 74
Width: 582
Flags: W
LayerCount: 2
Fore
SplineSet
177 1224 m 0
 177 1288 228 1340 293 1340 c 0
 357 1340 409 1288 409 1224 c 0
 409 1159 357 1108 293 1108 c 0
 228 1108 177 1159 177 1224 c 0
213 181 m 2
 213 713 l 1
 183 764 61 797 61 797 c 1
 63 832 l 1
 340 912 l 1
 399 918 l 1
 399 220 l 2
 399 188 402 159 409 135 c 1
 421 68 520 71 548 50 c 1
 548 33 548 17 547 0 c 1
 51 0 l 1
 49 18 49 34 49 50 c 1
 94 74 213 83 213 181 c 2
EndSplineSet
Validated: 1
EndChar

StartChar: j
Encoding: 106 106 75
Width: 540
Flags: W
LayerCount: 2
Fore
SplineSet
165 1224 m 0
 165 1288 216 1340 280 1340 c 0
 345 1340 396 1288 396 1224 c 0
 396 1159 345 1108 280 1108 c 0
 216 1108 165 1159 165 1224 c 0
201 88 m 1
 201 710 l 1
 169 761 38 797 38 797 c 1
 39 832 l 1
 319 911 l 1
 387 918 l 1
 387 125 l 2
 387 -168 251 -282 14 -308 c 1
 -1 -250 l 1
 163 -176 190 -136 201 88 c 1
EndSplineSet
Validated: 1
EndChar

StartChar: k
Encoding: 107 107 76
Width: 1076
Flags: W
LayerCount: 2
Fore
SplineSet
192 120 m 2
 192 1122 l 2
 192 1191 -4 1195 -4 1227 c 0
 -4 1232 -3 1238 0 1244 c 1
 398 1314 l 1
 398 475 l 1
 460 475 l 1
 810 778 l 1
 812 783 812 787 812 789 c 0
 812 852 683 813 683 855 c 0
 683 858 684 863 686 868 c 1
 1080 868 l 1
 1083 855 l 1
 1083 840 1053 828 1000 817 c 0
 951 806 918 791 898 774 c 2
 602 522 l 1
 936 94 l 1
 964 62 1112 41 1112 13 c 0
 1112 9 1112 4 1109 0 c 1
 614 0 l 1
 611 6 609 10 609 12 c 0
 609 49 726 24 726 74 c 0
 726 77 724 85 713 97 c 1
 463 420 l 1
 398 420 l 1
 398 116 l 2
 398 32 550 60 550 14 c 0
 550 11 549 7 546 0 c 1
 22 0 l 1
 19 7 19 9 19 12 c 0
 19 55 192 44 192 120 c 2
EndSplineSet
Validated: 1
EndChar

StartChar: l
Encoding: 108 108 77
Width: 573
Flags: W
LayerCount: 2
Fore
SplineSet
312 1369 m 1
 384 1376 l 1
 384 234 l 2
 384 200 386 168 391 140 c 0
 401 73 497 73 533 50 c 1
 533 33 531 0 531 0 c 1
 39 0 l 1
 39 0 38 34 38 50 c 1
 77 76 178 74 190 140 c 0
 195 167 198 196 198 228 c 0
 198 542 197 855 197 1169 c 1
 170 1213 32 1258 32 1258 c 1
 34 1293 l 1
 312 1369 l 1
EndSplineSet
Validated: 1
EndChar

StartChar: m
Encoding: 109 109 78
Width: 1768
Flags: W
LayerCount: 2
Fore
SplineSet
392 678 m 1
 392 235 l 2
 392 199 394 168 398 141 c 0
 408 75 498 74 544 50 c 1
 544 33 542 0 542 0 c 1
 49 0 l 1
 49 0 48 34 48 50 c 1
 84 71 181 72 194 136 c 1
 201 161 205 190 205 222 c 2
 205 724 l 1
 177 777 40 813 40 813 c 1
 43 847 l 1
 322 915 l 1
 383 915 l 1
 392 771 l 1
 481 866 570 926 712 926 c 0
 843 926 927 873 972 765 c 1
 1058 859 1138 924 1279 924 c 0
 1446 924 1565 849 1580 676 c 0
 1585 617 1588 555 1588 487 c 2
 1588 225 l 2
 1588 194 1590 165 1595 140 c 0
 1606 78 1690 73 1731 50 c 1
 1731 34 1729 0 1729 0 c 1
 1248 0 l 1
 1248 0 1246 34 1246 50 c 1
 1289 73 1380 77 1393 138 c 0
 1399 163 1401 192 1401 225 c 2
 1401 536 l 2
 1401 565 1401 594 1401 622 c 0
 1401 746 1335 819 1216 819 c 0
 1126 819 1039 753 985 694 c 1
 991 625 991 551 991 472 c 2
 991 230 l 2
 991 198 992 168 997 142 c 0
 1008 78 1100 74 1145 50 c 1
 1145 33 1143 0 1143 0 c 1
 643 0 l 1
 643 0 641 34 641 50 c 1
 674 71 766 68 782 117 c 1
 797 146 804 182 804 229 c 2
 804 577 l 2
 804 720 769 818 638 818 c 0
 534 818 458 753 392 678 c 1
EndSplineSet
Validated: 1
EndChar

StartChar: n
Encoding: 110 110 79
Width: 1204
Flags: W
LayerCount: 2
Fore
SplineSet
385 668 m 1
 385 222 l 2
 385 101 450 61 561 50 c 1
 561 33 559 0 559 0 c 1
 44 0 l 1
 44 0 41 36 44 54 c 1
 134 75 199 89 199 185 c 2
 199 727 l 1
 173 778 40 811 40 811 c 1
 43 845 l 1
 316 913 l 1
 377 917 l 1
 385 755 l 2
 386 755 387 755 388 755 c 0
 456 847 574 926 713 926 c 0
 904 926 1016 819 1026 599 c 0
 1027 556 1028 512 1028 468 c 2
 1028 245 l 2
 1028 73 1061 91 1173 54 c 1
 1175 36 1173 0 1173 0 c 1
 680 0 l 1
 680 0 678 34 678 50 c 1
 729 70 824 76 836 149 c 0
 840 172 841 198 841 226 c 2
 841 449 l 2
 841 657 841 818 651 818 c 0
 548 818 458 745 385 668 c 1
EndSplineSet
Validated: 1
EndChar

StartChar: o
Encoding: 111 111 80
Width: 1111
Flags: W
LayerCount: 2
Fore
SplineSet
282 515 m 0
 282 291 392 58 573 58 c 0
 749 58 832 200 832 388 c 0
 832 642 721 859 543 859 c 0
 396 859 282 755 282 515 c 0
82 456 m 0
 82 739 301 926 549 926 c 0
 813 926 1029 747 1029 457 c 0
 1029 166 812 -20 560 -20 c 0
 308 -20 82 174 82 456 c 0
EndSplineSet
Validated: 1
EndChar

StartChar: p
Encoding: 112 112 81
Width: 1159
Flags: W
LayerCount: 2
Fore
SplineSet
372 677 m 1
 372 347 l 2
 372 185 466 65 632 65 c 0
 803 65 887 208 887 428 c 0
 887 680 755 796 613 796 c 0
 521 796 437 740 372 677 c 1
372 75 m 1
 372 -144 l 2
 372 -183 375 -215 383 -242 c 1
 397 -311 511 -304 556 -328 c 1
 556 -344 554 -378 554 -378 c 1
 27 -378 l 1
 27 -378 25 -344 25 -328 c 1
 63 -306 163 -303 176 -238 c 1
 183 -212 186 -183 186 -153 c 0
 186 136 186 425 186 714 c 1
 156 770 19 814 19 814 c 1
 20 848 l 1
 290 915 l 1
 358 918 l 1
 366 754 l 1
 452 850 547 926 686 926 c 0
 912 926 1073 756 1073 477 c 0
 1073 180 876 -19 617 -19 c 0
 527 -19 443 14 372 75 c 1
EndSplineSet
Validated: 1
EndChar

StartChar: q
Encoding: 113 113 82
Width: 1134
Flags: W
LayerCount: 2
Fore
SplineSet
791 236 m 1
 791 495 l 2
 791 538 791 581 791 624 c 1
 774 759 684 853 527 853 c 0
 362 853 265 701 265 495 c 0
 265 257 391 113 548 113 c 0
 629 113 703 149 791 236 c 1
792 -186 m 2
 792 144 l 1
 676 23 584 -22 476 -22 c 0
 231 -22 84 197 84 432 c 0
 84 752 284 924 550 924 c 0
 666 924 774 896 868 848 c 1
 869 885 l 1
 879 910 928 926 956 926 c 0
 972 926 977 915 977 898 c 2
 977 -138 l 2
 977 -250 1015 -309 1131 -329 c 1
 1131 -345 1129 -378 1129 -378 c 1
 612 -378 l 1
 612 -378 610 -344 610 -329 c 1
 677 -305 792 -295 792 -186 c 2
EndSplineSet
Validated: 1
EndChar

StartChar: r
Encoding: 114 114 83
Width: 786
Flags: W
LayerCount: 2
Fore
SplineSet
388 633 m 1
 388 261 l 2
 388 208 390 164 400 129 c 1
 414 63 522 71 584 50 c 1
 584 33 583 0 583 0 c 1
 47 0 l 1
 47 0 45 46 47 54 c 1
 139 81 201 70 201 215 c 2
 201 723 l 1
 172 773 44 805 44 805 c 1
 46 840 l 1
 312 916 l 1
 369 916 l 1
 382 732 l 2
 383 732 384 732 385 732 c 0
 462 873 540 921 640 921 c 0
 723 921 782 862 782 811 c 0
 782 783 757 692 696 692 c 0
 608 692 613 794 551 794 c 0
 475 794 434 709 388 633 c 1
EndSplineSet
Validated: 1
EndChar

StartChar: s
Encoding: 115 115 84
Width: 807
Flags: W
LayerCount: 2
Fore
SplineSet
659 853 m 1
 665 631 l 1
 651 630 632 630 618 630 c 1
 607 653 590 690 581 717 c 0
 552 808 468 859 381 859 c 0
 300 859 245 819 245 738 c 0
 245 634 395 575 514 512 c 0
 656 436 729 361 729 237 c 0
 729 67 593 -20 410 -20 c 0
 301 -20 179 8 101 52 c 1
 106 296 l 1
 128 298 l 1
 137 300 148 301 159 301 c 1
 169 278 182 251 190 213 c 0
 210 108 302 50 401 50 c 0
 497 50 571 102 571 183 c 0
 571 296 422 329 244 441 c 0
 148 501 91 573 91 684 c 0
 91 843 222 926 387 926 c 0
 491 926 585 900 659 853 c 1
EndSplineSet
Validated: 1
EndChar

StartChar: t
Encoding: 116 116 85
Width: 670
Flags: W
LayerCount: 2
Fore
SplineSet
622 815 m 1
 373 815 l 1
 373 314 l 2
 373 135 377 86 505 86 c 0
 563 86 622 101 645 108 c 1
 653 35 l 1
 614 17 543 -20 425 -20 c 0
 233 -20 186 66 186 317 c 2
 186 815 l 1
 37 815 l 1
 37 859 l 1
 197 923 247 1021 321 1134 c 0
 325 1141 337 1149 348 1149 c 0
 360 1149 371 1139 371 1110 c 2
 371 899 l 1
 622 899 l 1
 622 815 l 1
EndSplineSet
Validated: 1
EndChar

StartChar: u
Encoding: 117 117 86
Width: 1191
Flags: W
LayerCount: 2
Fore
SplineSet
1160 85 m 1
 1160 68 1157 32 1157 32 c 1
 829 -15 l 1
 821 145 l 1
 716 28 603 -20 490 -20 c 0
 233 -20 192 197 192 429 c 2
 192 645 l 2
 192 687 189 719 184 746 c 0
 171 815 25 828 25 828 c 1
 26 878 l 1
 378 904 l 1
 378 440 l 2
 378 190 419 98 554 98 c 0
 643 98 729 134 816 220 c 1
 816 643 l 2
 816 686 813 719 808 747 c 0
 795 815 641 829 641 829 c 1
 641 852 l 1
 642 878 l 1
 1002 904 l 1
 1002 201 l 2
 1002 103 1095 97 1160 85 c 1
EndSplineSet
Validated: 1
EndChar

StartChar: v
Encoding: 118 118 87
Width: 969
Flags: W
LayerCount: 2
Fore
SplineSet
813 706 m 1
 503 -12 l 1
 495 -16 485 -18 473 -18 c 0
 460 -18 450 -16 443 -12 c 1
 137 724 l 2
 89 840 69 813 -5 847 c 1
 -4 899 l 1
 446 899 l 1
 447 882 451 860 451 845 c 1
 388 828 322 812 322 760 c 0
 322 752 324 743 327 733 c 2
 531 230 l 1
 703 649 l 2
 718 686 731 728 731 755 c 1
 727 805 680 824 601 843 c 1
 600 851 599 860 599 870 c 0
 599 878 600 888 601 899 c 1
 973 899 l 1
 975 882 975 866 975 848 c 1
 928 818 864 821 813 706 c 1
EndSplineSet
Validated: 1
EndChar

StartChar: w
Encoding: 119 119 88
Width: 1434
Flags: W
LayerCount: 2
Fore
SplineSet
318 726 m 0
 318 723 318 722 319 719 c 2
 504 243 l 1
 687 688 l 1
 651 771 638 776 593 810 c 1
 575 841 558 849 519 851 c 1
 521 899 l 1
 963 899 l 1
 964 882 965 867 965 851 c 1
 915 827 850 825 850 768 c 0
 850 749 858 725 868 698 c 2
 1031 251 l 1
 1187 672 l 2
 1197 698 1206 727 1206 754 c 0
 1206 830 1162 825 1085 848 c 1
 1084 855 1083 863 1083 872 c 0
 1083 881 1084 890 1085 899 c 1
 1383 899 l 1
 1402 898 1420 897 1436 896 c 1
 1436 867 1365 853 1356 810 c 1
 1317 791 1298 768 1278 714 c 2
 1008 -14 l 1
 1001 -18 991 -20 978 -20 c 0
 965 -20 955 -18 947 -14 c 1
 720 596 l 1
 479 -14 l 1
 471 -18 461 -20 448 -20 c 0
 434 -20 423 -18 416 -14 c 1
 137 699 l 1
 120 739 108 769 94 792 c 1
 75 830 30 831 -1 850 c 1
 1 899 l 1
 413 899 l 1
 414 882 414 867 414 851 c 1
 364 834 313 813 313 758 c 0
 313 749 314 738 318 726 c 0
EndSplineSet
Validated: 1
EndChar

StartChar: x
Encoding: 120 120 89
Width: 1008
Flags: W
LayerCount: 2
Fore
SplineSet
191 152 m 1
 418 431 l 1
 151 772 l 2
 113 821 52 836 22 851 c 1
 22 866 23 899 23 899 c 1
 466 899 l 1
 466 899 467 866 467 851 c 1
 418 836 379 811 379 779 c 0
 379 768 383 761 388 748 c 1
 528 561 l 1
 650 710 l 2
 671 736 681 756 681 774 c 0
 681 809 640 839 580 848 c 1
 580 855 579 872 580 899 c 1
 950 899 l 1
 950 899 951 866 951 850 c 1
 910 833 838 818 783 753 c 0
 762 727 738 698 712 666 c 2
 577 501 l 1
 847 159 l 1
 889 101 906 83 951 70 c 0
 968 65 993 54 1002 47 c 1
 1002 33 1000 0 1000 0 c 1
 523 0 l 1
 523 0 522 32 522 48 c 1
 566 71 640 75 640 115 c 0
 640 129 632 146 615 165 c 1
 459 376 l 1
 343 225 l 2
 316 190 287 143 287 113 c 0
 287 77 343 63 402 51 c 1
 404 33 402 0 402 0 c 1
 19 0 l 1
 19 0 17 31 17 48 c 1
 51 67 135 86 191 152 c 1
EndSplineSet
Validated: 1
EndChar

StartChar: y
Encoding: 121 121 90
Width: 971
Flags: W
LayerCount: 2
Fore
SplineSet
465 0 m 1
 153 712 l 2
 89 857 65 818 -6 847 c 1
 -5 899 l 1
 464 899 l 1
 464 899 469 874 469 867 c 0
 469 849 432 840 417 830 c 1
 361 826 334 810 334 776 c 0
 334 762 340 743 347 721 c 1
 554 227 l 1
 723 675 l 2
 733 701 738 723 738 743 c 0
 738 801 697 828 608 843 c 1
 606 862 608 899 608 899 c 1
 975 899 l 1
 975 899 976 866 976 848 c 1
 931 812 861 827 827 707 c 1
 472 -167 l 2
 418 -301 346 -395 214 -395 c 0
 126 -395 60 -351 60 -279 c 0
 60 -224 105 -186 159 -186 c 0
 234 -186 233 -257 297 -257 c 0
 379 -257 424 -129 465 0 c 1
EndSplineSet
Validated: 1
EndChar

StartChar: z
Encoding: 122 122 91
Width: 892
Flags: W
LayerCount: 2
Fore
SplineSet
823 840 m 1
 325 126 l 1
 278 61 l 1
 472 60 l 1
 537 61 592 71 643 86 c 0
 720 109 742 232 789 279 c 1
 806 279 823 277 840 277 c 1
 811 -11 l 1
 811 -11 686 0 652 0 c 2
 44 0 l 1
 41 25 l 1
 569 785 l 1
 607 838 l 1
 607 838 503 838 438 838 c 1
 394 836 351 838 313 829 c 1
 223 818 187 707 124 663 c 1
 116 663 107 663 99 663 c 2
 79 664 l 1
 100 925 l 1
 169 899 225 899 267 899 c 2
 768 899 l 1
 787 898 822 895 822 895 c 1
 823 840 l 1
EndSplineSet
Validated: 1
EndChar

StartChar: braceleft
Encoding: 123 123 92
Width: 827
Flags: W
LayerCount: 2
Fore
SplineSet
191 619 m 1
 191 638 198 658 213 667 c 1
 346 678 403 765 403 871 c 0
 403 977 375 1067 375 1157 c 0
 375 1338 480 1481 724 1497 c 1
 728 1494 729 1480 729 1467 c 0
 729 1454 729 1442 724 1440 c 1
 576 1419 532 1352 532 1261 c 0
 532 1184 574 1072 574 967 c 0
 574 779 447 675 304 632 c 1
 446 590 574 483 574 297 c 0
 574 185 530 73 530 -4 c 0
 530 -89 583 -153 724 -176 c 0
 733 -178 731 -198 731 -213 c 0
 731 -223 730 -232 724 -233 c 1
 474 -218 376 -69 376 120 c 0
 376 222 401 326 401 406 c 0
 401 492 361 560 266 584 c 0
 235 592 210 605 191 619 c 1
EndSplineSet
Validated: 1
EndChar

StartChar: bar
Encoding: 124 124 93
Width: 824
Flags: W
LayerCount: 2
Fore
SplineSet
354 1165 m 2
 354 1431 l 1
 372 1459 405 1467 438 1467 c 1
 451 1402 470 1332 470 1237 c 2
 469 889 l 2
 468 671 468 435 468 224 c 0
 468 102 469 -7 469 -88 c 0
 469 -167 466 -249 438 -315 c 1
 393 -315 373 -291 356 -283 c 1
 356 71 354 531 354 1165 c 2
EndSplineSet
Validated: 1
EndChar

StartChar: braceright
Encoding: 125 125 94
Width: 827
Flags: W
LayerCount: 2
Fore
SplineSet
614 667 m 1
 629 658 637 638 637 619 c 1
 617 606 593 591 561 584 c 0
 461 561 424 486 424 399 c 0
 424 303 451 216 451 127 c 0
 451 -65 359 -217 104 -233 c 1
 94 -231 96 -216 96 -197 c 0
 96 -187 97 -178 104 -176 c 0
 244 -154 297 -90 297 -4 c 0
 297 72 253 184 253 297 c 0
 253 483 381 590 523 632 c 1
 377 675 253 781 253 967 c 0
 253 1073 295 1185 295 1261 c 0
 295 1352 250 1419 104 1440 c 1
 98 1442 98 1454 98 1467 c 0
 98 1480 99 1494 104 1497 c 1
 347 1481 452 1338 452 1157 c 0
 452 1065 424 973 424 866 c 0
 424 762 483 677 614 667 c 1
EndSplineSet
Validated: 1
EndChar

StartChar: asciitilde
Encoding: 126 126 95
Width: 858
Flags: W
LayerCount: 2
Fore
SplineSet
757 846 m 1
 846 846 l 1
 846 838 847 831 847 823 c 0
 847 673 761 587 645 583 c 1
 563 583 512 603 354 671 c 0
 284 701 247 713 214 713 c 0
 149 713 107 676 97 596 c 1
 6 596 l 1
 23 785 108 851 223 851 c 0
 295 851 395 810 513 757 c 0
 581 726 610 718 642 718 c 0
 723 718 754 767 757 846 c 1
EndSplineSet
Validated: 1
EndChar

StartChar: exclamdown
Encoding: 161 161 96
Width: 562
Flags: W
LayerCount: 2
Fore
SplineSet
284 868 m 0
 215 868 159 923 159 992 c 0
 159 1062 215 1117 284 1117 c 0
 354 1117 408 1062 408 992 c 0
 408 923 354 868 284 868 c 0
275 718 m 0
 310 718 317 699 326 627 c 1
 342 470 362 294 377 142 c 2
 398 -71 l 2
 400 -95 402 -118 402 -141 c 0
 402 -207 372 -231 281 -231 c 0
 190 -231 161 -210 161 -143 c 0
 161 -117 163 -93 166 -67 c 2
 187 140 l 2
 202 288 223 478 242 655 c 0
 247 701 251 718 275 718 c 0
EndSplineSet
Validated: 1
EndChar

StartChar: cent
Encoding: 162 162 97
Width: 1049
Flags: W
LayerCount: 2
Fore
SplineSet
485 165 m 1
 611 846 l 1
 453 846 311 742 311 516 c 0
 311 332 368 222 485 165 c 1
396 -201 m 1
 448 6 l 1
 254 56 125 224 125 447 c 0
 125 676 284 923 596 923 c 0
 606 923 616 922 627 922 c 1
 657 1107 l 2
 665 1157 686 1196 704 1223 c 1
 720 1223 737 1223 755 1221 c 1
 754 1187 753 1158 743 1097 c 2
 714 916 l 1
 844 896 933 832 933 735 c 0
 933 675 891 639 844 639 c 0
 722 639 818 775 691 830 c 1
 563 139 l 1
 600 126 632 122 668 122 c 0
 758 122 834 155 891 212 c 1
 904 206 914 198 923 189 c 1
 919 173 913 158 907 142 c 0
 872 50 722 -16 604 -19 c 1
 579 -26 558 -29 536 -29 c 0
 533 -29 530 -29 527 -29 c 1
 512 -157 489 -209 462 -253 c 1
 435 -253 411 -244 396 -201 c 1
EndSplineSet
Validated: 1
EndChar

StartChar: sterling
Encoding: 163 163 98
Width: 1238
Flags: W
LayerCount: 2
Fore
SplineSet
501 574 m 1
 516 364 l 1
 512 319 507 278 496 242 c 1
 592 202 675 160 743 160 c 0
 903 160 910 312 946 312 c 0
 951 312 957 310 965 307 c 1
 963 281 l 2
 954 166 948 -11 746 -11 c 0
 644 -11 534 51 436 109 c 1
 379 26 302 -11 231 -11 c 0
 124 -11 65 76 65 160 c 0
 65 237 114 310 229 310 c 0
 276 310 322 301 367 288 c 1
 302 574 l 1
 193 574 153 581 153 621 c 0
 153 656 177 666 285 666 c 1
 276 842 l 2
 275 850 275 857 275 865 c 0
 275 1102 470 1210 647 1210 c 0
 794 1210 927 1137 927 1005 c 0
 927 948 877 898 823 898 c 0
 775 898 732 944 732 988 c 0
 732 1021 752 1048 752 1071 c 0
 752 1128 709 1164 658 1164 c 0
 582 1164 490 1086 490 887 c 0
 490 874 490 861 491 848 c 2
 501 666 l 1
 729 666 l 1
 732 654 l 2
 733 646 735 633 735 616 c 0
 735 596 733 585 732 580 c 1
 729 574 l 1
 501 574 l 1
248 73 m 0
 288 73 335 100 359 155 c 1
 307 184 262 205 227 205 c 0
 192 205 175 182 175 158 c 0
 175 99 208 73 248 73 c 0
EndSplineSet
Validated: 1
EndChar

StartChar: yen
Encoding: 165 165 99
Width: 1340
Flags: W
LayerCount: 2
Fore
SplineSet
370 302 m 2
 540 303 l 1
 540 395 l 1
 484 394 433 391 389 391 c 0
 304 391 249 401 249 452 c 0
 249 480 266 487 463 487 c 2
 540 487 l 1
 540 530 l 1
 260 1030 l 2
 241 1064 46 1146 46 1159 c 0
 46 1160 47 1166 50 1176 c 1
 676 1176 l 1
 679 1169 680 1163 680 1158 c 0
 680 1118 491 1110 491 1059 c 0
 491 1053 493 1047 496 1040 c 2
 726 630 l 1
 940 1040 l 2
 944 1047 946 1053 946 1060 c 0
 946 1109 821 1103 762 1148 c 0
 759 1150 758 1154 758 1159 c 0
 758 1160 759 1166 762 1176 c 1
 1258 1176 l 1
 1261 1169 1262 1162 1262 1157 c 0
 1262 1140 1204 1124 1171 1119 c 0
 1099 1107 1050 1090 1021 1040 c 2
 755 580 l 1
 755 487 l 1
 984 487 l 2
 1013 487 1087 479 1087 434 c 0
 1087 415 1058 393 1006 393 c 2
 755 393 l 1
 755 307 l 1
 1011 307 l 2
 1064 307 1088 285 1088 265 c 0
 1088 221 1034 210 995 210 c 2
 755 210 l 1
 755 124 l 2
 755 21 988 73 988 17 c 0
 988 14 987 9 984 0 c 1
 314 0 l 1
 311 7 309 13 309 18 c 0
 309 84 540 14 540 130 c 2
 540 210 l 1
 463 210 l 2
 266 210 249 227 249 254 c 0
 249 283 271 301 370 302 c 2
EndSplineSet
Validated: 1
EndChar

StartChar: florin
Encoding: 402 402 100
Width: 952
Flags: W
LayerCount: 2
Fore
SplineSet
265 863 m 1
 451 863 l 1
 524 1221 646 1367 845 1367 c 0
 933 1367 1010 1329 1010 1255 c 0
 1010 1206 971 1170 923 1170 c 0
 904 1170 890 1178 882 1190 c 1
 825 1203 860 1294 795 1294 c 0
 734 1294 691 1227 653 993 c 1
 628 863 l 1
 822 863 l 1
 805 794 l 1
 611 794 l 1
 486 161 l 2
 421 -165 293 -330 88 -330 c 0
 -12 -330 -88 -294 -88 -218 c 0
 -88 -169 -50 -135 -4 -135 c 0
 15 -135 30 -143 40 -155 c 1
 94 -169 77 -257 135 -257 c 0
 204 -257 250 -169 281 26 c 1
 434 794 l 1
 248 794 l 1
 265 863 l 1
EndSplineSet
Validated: 1
EndChar

StartChar: section
Encoding: 167 167 101
Width: 856
Flags: W
LayerCount: 2
Fore
SplineSet
670 264 m 0
 670 589 384 782 252 1034 c 1
 246 1037 240 1040 234 1043 c 1
 208 1005 187 930 187 871 c 0
 187 840 189 809 194 778 c 0
 242 500 567 292 624 109 c 0
 624 108 625 107 626 106 c 1
 656 166 670 206 670 264 c 0
137 909 m 1
 124 951 118 992 118 1031 c 0
 118 1213 244 1360 450 1360 c 0
 615 1360 722 1301 727 1181 c 1
 724 1155 699 1134 662 1134 c 0
 606 1134 539 1271 454 1286 c 1
 436 1294 415 1296 399 1296 c 0
 316 1296 262 1249 262 1179 c 0
 262 1087 410 976 527 853 c 1
 669 722 745 556 745 381 c 0
 745 334 738 287 725 242 c 1
 757 193 767 149 767 102 c 0
 767 -95 617 -222 418 -222 c 0
 356 -222 285 -213 236 -195 c 1
 163 -177 106 -89 106 -34 c 0
 106 3 130 31 176 31 c 0
 203 31 228 15 242 -19 c 1
 256 -97 319 -127 401 -139 c 1
 421 -145 441 -149 462 -149 c 0
 535 -149 605 -112 605 -30 c 0
 605 83 471 190 284 372 c 1
 168 479 112 615 112 757 c 0
 112 808 121 859 137 909 c 1
EndSplineSet
Validated: 1
EndChar

StartChar: currency
Encoding: 164 164 102
Width: 1188
Flags: W
LayerCount: 2
Fore
SplineSet
331 721 m 0
 331 567 437 445 594 445 c 0
 734 445 857 557 857 707 c 0
 857 859 751 983 594 983 c 0
 454 983 331 870 331 721 c 0
817 1044 m 1
 898 1145 l 2
 916 1167 936 1181 957 1194 c 1
 989 1174 1019 1144 1039 1109 c 1
 1027 1090 1012 1073 995 1053 c 2
 912 959 l 1
 969 885 998 809 998 714 c 0
 998 618 970 544 914 470 c 1
 991 377 1022 361 1046 318 c 1
 1026 290 993 258 959 238 c 1
 918 262 871 323 822 384 c 1
 749 337 676 318 596 318 c 0
 517 318 445 338 373 382 c 1
 292 281 l 2
 274 258 252 245 231 233 c 1
 199 254 169 282 149 317 c 1
 161 335 175 354 194 373 c 1
 277 467 l 1
 220 542 191 616 191 713 c 0
 191 808 219 883 275 958 c 1
 198 1050 167 1067 142 1110 c 1
 163 1137 196 1170 230 1190 c 1
 272 1165 319 1104 369 1042 c 1
 443 1088 516 1109 594 1109 c 0
 674 1109 743 1090 817 1044 c 1
EndSplineSet
Validated: 1
EndChar

StartChar: quotesingle
Encoding: 39 39 103
Width: 370
Flags: W
LayerCount: 2
Fore
SplineSet
172 753 m 1
 148 810 136 879 110 1028 c 1
 91 1128 l 2
 86 1151 84 1176 83 1200 c 1
 83 1263 118 1302 185 1302 c 0
 252 1302 286 1263 286 1200 c 1
 281 1144 270 1084 260 1028 c 2
 231 868 l 1
 209 767 203 753 172 753 c 1
EndSplineSet
Validated: 1
EndChar

StartChar: quotedblleft
Encoding: 8220 8220 104
Width: 962
Flags: W
LayerCount: 2
Fore
SplineSet
379 1327 m 1
 395 1314 409 1297 415 1271 c 1
 330 1223 236 1192 236 1088 c 1
 255 1061 280 1042 322 1035 c 0
 392 1022 427 984 427 922 c 0
 427 848 370 792 287 792 c 0
 179 792 107 877 107 998 c 0
 107 1142 206 1296 379 1327 c 1
804 1327 m 1
 820 1314 834 1297 840 1271 c 1
 755 1223 661 1192 661 1088 c 1
 679 1061 705 1042 747 1035 c 0
 817 1022 851 984 851 922 c 0
 851 848 796 792 712 792 c 0
 605 792 532 877 532 998 c 0
 532 1142 631 1296 804 1327 c 1
EndSplineSet
Validated: 1
EndChar

StartChar: guillemotleft
Encoding: 171 171 105
Width: 794
Flags: W
LayerCount: 2
Fore
SplineSet
228 507 m 1
 294 377 407 201 442 85 c 1
 433 74 422 63 400 63 c 1
 378 78 362 94 339 124 c 2
 45 507 l 1
 346 885 l 2
 364 907 381 933 396 947 c 1
 425 947 440 934 449 922 c 1
 415 814 296 635 228 507 c 1
693 808 m 2
 540 507 l 1
 689 200 l 2
 700 177 705 157 710 134 c 1
 701 123 690 113 669 113 c 1
 648 126 634 143 613 172 c 2
 369 507 l 1
 456 626 610 829 665 898 c 1
 693 898 709 885 718 872 c 1
 713 854 702 825 693 808 c 2
EndSplineSet
Validated: 1
EndChar

StartChar: guilsinglleft
Encoding: 8249 8249 106
Width: 539
Flags: W
LayerCount: 2
Fore
SplineSet
427 872 m 1
 238 532 l 1
 422 185 l 2
 436 159 445 136 452 110 c 1
 443 99 432 88 411 88 c 1
 389 103 373 119 350 149 c 2
 56 532 l 1
 356 910 l 2
 374 933 393 957 406 972 c 1
 435 972 451 959 460 946 c 1
 453 925 437 893 427 872 c 1
EndSplineSet
Validated: 1
EndChar

StartChar: guilsinglright
Encoding: 8250 8250 107
Width: 539
Flags: W
LayerCount: 2
Fore
SplineSet
121 198 m 1
 300 532 l 1
 117 859 l 1
 104 886 87 920 79 946 c 1
 88 959 104 972 132 972 c 1
 148 955 169 927 188 901 c 1
 482 532 l 1
 195 157 l 2
 171 125 152 105 128 88 c 1
 106 88 96 99 87 110 c 1
 95 140 106 167 121 198 c 1
EndSplineSet
Validated: 1
EndChar

StartChar: endash
Encoding: 8211 8211 108
Width: 929
Flags: W
LayerCount: 2
Fore
SplineSet
40 505 m 1
 97 520 164 525 268 525 c 2
 745 525 l 2
 774 525 802 525 831 525 c 1
 877 508 889 485 889 453 c 1
 832 436 765 435 660 435 c 2
 184 435 l 2
 155 435 127 435 98 435 c 1
 50 452 40 471 40 505 c 1
EndSplineSet
Validated: 1
EndChar

StartChar: dagger
Encoding: 8224 8224 109
Width: 1051
Flags: W
LayerCount: 2
Fore
SplineSet
626 1207 m 2
 576 801 l 1
 899 846 l 1
 932 848 906 896 938 896 c 0
 974 896 984 860 984 813 c 2
 984 700 l 2
 984 652 971 618 939 618 c 0
 905 618 931 667 898 670 c 1
 576 714 l 1
 633 -121 l 2
 637 -178 672 -192 672 -204 c 0
 672 -211 663 -208 658 -224 c 1
 462 -224 l 2
 442 -224 383 -229 383 -216 c 1
 373 -210 370 -206 370 -202 c 0
 369 -189 408 -177 412 -118 c 2
 468 714 l 1
 151 669 l 1
 120 666 147 617 112 617 c 0
 78 617 67 654 67 700 c 2
 67 813 l 2
 67 861 76 896 113 896 c 0
 144 896 120 847 151 846 c 1
 468 801 l 1
 418 1207 l 2
 411 1263 369 1275 370 1289 c 0
 370 1297 380 1294 384 1310 c 1
 580 1310 l 2
 599 1310 659 1315 659 1302 c 1
 668 1297 672 1294 672 1290 c 0
 672 1278 633 1265 626 1207 c 2
EndSplineSet
Validated: 33
EndChar

StartChar: periodcentered
Encoding: 65537 -1 110
Width: 498
Flags: W
LayerCount: 2
Fore
SplineSet
96 755 m 0
 96 831 164 903 249 903 c 0
 334 903 402 831 402 755 c 0
 402 680 334 607 249 607 c 0
 165 607 96 674 96 755 c 0
EndSplineSet
Validated: 1
EndChar

StartChar: paragraph
Encoding: 182 182 111
Width: 1029
Flags: W
LayerCount: 2
Fore
SplineSet
838 1204 m 1
 838 52 l 2
 838 -71 918 -114 918 -216 c 1
 910 -218 903 -221 894 -224 c 1
 744 -224 l 1
 744 1220 l 1
 604 1220 l 1
 604 -224 l 1
 425 -224 l 1
 424 -187 423 -152 423 -118 c 0
 423 -94 512 -116 512 -72 c 2
 512 577 l 1
 205 577 22 678 22 935 c 0
 22 1207 241 1303 535 1303 c 2
 1003 1303 l 1
 1005 1288 1005 1275 1005 1264 c 1
 980 1239 863 1249 838 1204 c 1
EndSplineSet
Validated: 1
EndChar

StartChar: bullet
Encoding: 8226 8226 112
Width: 736
Flags: W
LayerCount: 2
Fore
SplineSet
366 852 m 0
 521 852 628 719 628 573 c 0
 628 435 529 315 372 315 c 0
 213 315 109 446 109 589 c 0
 109 729 209 852 366 852 c 0
EndSplineSet
Validated: 1
EndChar

StartChar: quotesinglbase
Encoding: 8218 8218 113
Width: 572
Flags: W
LayerCount: 2
Fore
SplineSet
227 -196 m 1
 220 -211 215 -217 209 -217 c 0
 203 -217 197 -212 189 -205 c 1
 247 -180 286 -141 286 -41 c 0
 286 29 280 82 231 102 c 1
 179 111 151 142 151 191 c 0
 151 253 187 297 270 297 c 0
 358 297 421 236 421 135 c 0
 421 3 383 -128 227 -196 c 1
EndSplineSet
Validated: 1
EndChar

StartChar: quotedblbase
Encoding: 8222 8222 114
Width: 889
Flags: W
LayerCount: 2
Fore
SplineSet
200 -195 m 1
 193 -210 188 -216 182 -216 c 0
 177 -216 171 -211 162 -204 c 1
 220 -179 259 -140 259 -40 c 0
 259 19 258 70 208 81 c 1
 155 97 124 135 124 192 c 0
 124 254 160 298 243 298 c 0
 335 298 395 233 395 126 c 0
 395 -3 344 -126 200 -195 c 1
573 -195 m 1
 566 -210 561 -216 555 -216 c 0
 549 -216 543 -211 535 -204 c 1
 593 -179 632 -140 632 -40 c 0
 632 41 617 99 573 130 c 1
 522 136 499 164 499 209 c 1
 504 260 542 298 616 298 c 0
 707 298 770 231 770 124 c 0
 770 0 705 -126 573 -195 c 1
EndSplineSet
Validated: 1
EndChar

StartChar: quotedblright
Encoding: 8221 8221 115
Width: 968
Flags: W
LayerCount: 2
Fore
SplineSet
162 793 m 1
 146 807 131 824 125 850 c 1
 210 898 305 928 305 1033 c 1
 286 1060 261 1078 218 1085 c 0
 148 1097 114 1137 114 1199 c 0
 114 1271 170 1328 253 1328 c 0
 361 1328 434 1244 434 1123 c 0
 434 978 334 825 162 793 c 1
593 793 m 1
 577 807 563 824 557 850 c 1
 641 898 736 928 736 1033 c 1
 717 1060 692 1078 650 1085 c 0
 580 1097 546 1137 546 1199 c 0
 546 1271 601 1328 685 1328 c 0
 792 1328 865 1244 865 1123 c 0
 865 978 765 825 593 793 c 1
EndSplineSet
Validated: 1
EndChar

StartChar: guillemotright
Encoding: 187 187 116
Width: 794
Flags: W
LayerCount: 2
Fore
SplineSet
387 172 m 2
 566 507 l 1
 383 833 l 1
 370 860 353 895 345 921 c 1
 354 934 370 946 398 946 c 1
 414 929 435 902 454 876 c 1
 748 507 l 1
 461 132 l 2
 436 99 417 80 394 63 c 1
 372 63 361 74 352 85 c 1
 361 115 372 142 387 172 c 2
108 210 m 1
 254 507 l 1
 104 797 l 1
 95 819 81 850 76 872 c 1
 85 884 101 897 129 897 c 1
 144 880 163 852 181 826 c 1
 425 507 l 1
 187 182 l 2
 163 149 147 128 125 112 c 1
 103 112 93 123 84 134 c 1
 89 160 96 183 108 210 c 1
EndSplineSet
Validated: 1
EndChar

StartChar: ellipsis
Encoding: 8230 8230 117
Width: 1808
Flags: W
LayerCount: 2
Fore
SplineSet
303 251 m 0
 379 251 441 189 441 116 c 0
 441 44 379 -20 303 -20 c 0
 227 -20 166 42 166 116 c 0
 166 189 227 251 303 251 c 0
905 251 m 0
 981 251 1043 189 1043 116 c 0
 1043 44 981 -20 905 -20 c 0
 829 -20 768 42 768 116 c 0
 768 189 829 251 905 251 c 0
1506 251 m 0
 1583 251 1644 189 1644 116 c 0
 1644 44 1583 -20 1506 -20 c 0
 1430 -20 1369 42 1369 116 c 0
 1369 189 1430 251 1506 251 c 0
EndSplineSet
Validated: 1
EndChar

StartChar: questiondown
Encoding: 191 191 118
Width: 806
Flags: W
LayerCount: 2
Fore
SplineSet
502 869 m 0
 433 869 376 924 376 993 c 0
 376 1062 433 1118 502 1118 c 0
 571 1118 625 1062 625 993 c 0
 625 924 571 869 502 869 c 0
468 747 m 1
 550 747 l 1
 560 620 582 567 582 529 c 0
 582 519 580 513 575 508 c 1
 548 410 214 340 214 120 c 0
 214 -12 339 -113 455 -113 c 0
 489 -113 520 -101 520 -80 c 1
 562 -70 571 -33 606 -19 c 1
 606 0 625 20 645 20 c 0
 698 20 739 -22 739 -74 c 0
 739 -169 643 -223 514 -223 c 0
 314 -223 121 -57 86 110 c 0
 80 139 77 166 77 190 c 0
 77 476 400 507 452 633 c 1
 464 652 469 682 469 716 c 0
 469 726 469 736 468 747 c 1
EndSplineSet
Validated: 1
EndChar

StartChar: grave
Encoding: 96 96 119
Width: 968
Flags: W
LayerCount: 2
Fore
SplineSet
252 1442 m 0
 237 1455 231 1471 231 1488 c 0
 231 1528 270 1570 312 1570 c 0
 333 1570 355 1560 373 1536 c 0
 438 1449 577 1262 660 1152 c 0
 667 1142 671 1131 671 1122 c 0
 671 1107 663 1096 648 1096 c 0
 638 1096 624 1102 608 1116 c 0
 539 1177 354 1349 252 1442 c 0
EndSplineSet
Validated: 1
EndChar

StartChar: acute
Encoding: 180 180 120
Width: 968
Flags: W
LayerCount: 2
Fore
SplineSet
650 1442 m 0
 548 1349 363 1177 294 1116 c 0
 278 1102 264 1096 254 1096 c 0
 239 1096 231 1107 231 1122 c 0
 231 1131 235 1142 242 1152 c 0
 325 1262 464 1449 529 1536 c 0
 547 1560 569 1570 590 1570 c 0
 632 1570 671 1528 671 1488 c 0
 671 1471 665 1455 650 1442 c 0
EndSplineSet
Validated: 1
EndChar

StartChar: circumflex
Encoding: 710 710 121
Width: 1032
Flags: W
LayerCount: 2
Fore
SplineSet
508 1350 m 1
 508 1350 316 1144 256 1081 c 0
 247 1072 238 1068 230 1068 c 0
 220 1068 213 1075 213 1085 c 0
 213 1089 214 1093 216 1098 c 0
 289 1239 356 1378 422 1507 c 0
 447 1555 483 1571 508 1571 c 0
 533 1571 568 1555 593 1507 c 0
 659 1378 727 1239 800 1098 c 0
 802 1093 803 1089 803 1085 c 0
 803 1075 796 1068 786 1068 c 0
 778 1068 769 1072 760 1081 c 0
 700 1144 508 1350 508 1350 c 1
EndSplineSet
Validated: 1
EndChar

StartChar: tilde
Encoding: 732 732 122
Width: 1121
Flags: W
LayerCount: 2
Fore
SplineSet
285 1131 m 1
 247 1131 l 1
 251 1294 311 1364 407 1364 c 0
 519 1364 639 1254 719 1254 c 0
 762 1254 792 1290 805 1362 c 1
 843 1362 l 1
 840 1204 780 1121 682 1121 c 0
 570 1121 442 1237 364 1237 c 0
 321 1237 296 1194 285 1131 c 1
EndSplineSet
Validated: 1
EndChar

StartChar: macron
Encoding: 175 175 123
Width: 772
Flags: W
LayerCount: 2
Fore
SplineSet
691 1302 m 1
 89 1302 l 1
 89 1430 l 1
 691 1430 l 1
 691 1302 l 1
EndSplineSet
Validated: 1
EndChar

StartChar: breve
Encoding: 728 728 124
Width: 691
Flags: W
LayerCount: 2
Fore
SplineSet
100 914 m 1
 157 914 l 1
 165 896 177 880 191 867 c 1
 217 822 258 798 347 798 c 0
 438 798 482 823 508 869 c 1
 520 882 530 896 535 914 c 1
 593 914 l 1
 593 779 516 667 347 667 c 0
 174 667 104 776 100 914 c 1
EndSplineSet
Validated: 1
EndChar

StartChar: dotaccent
Encoding: 729 729 125
Width: 691
Flags: W
LayerCount: 2
Fore
SplineSet
345 900 m 0
 406 900 455 851 455 791 c 0
 455 730 406 682 345 682 c 0
 286 682 236 730 236 791 c 0
 236 851 286 900 345 900 c 0
EndSplineSet
Validated: 1
EndChar

StartChar: dieresis
Encoding: 168 168 126
Width: 1121
Flags: W
LayerCount: 2
Fore
SplineSet
338 1301 m 0
 398 1301 447 1252 447 1192 c 0
 447 1131 398 1083 338 1083 c 0
 277 1083 229 1131 229 1192 c 0
 229 1252 277 1301 338 1301 c 0
777 1301 m 0
 838 1301 887 1252 887 1192 c 0
 887 1131 838 1083 777 1083 c 0
 717 1083 669 1131 669 1192 c 0
 669 1252 717 1301 777 1301 c 0
EndSplineSet
Validated: 1
EndChar

StartChar: ring
Encoding: 730 730 127
Width: 691
Flags: W
LayerCount: 2
Fore
SplineSet
346 1421 m 0
 279 1421 227 1366 227 1303 c 0
 227 1238 279 1184 346 1184 c 0
 413 1184 466 1239 466 1303 c 0
 466 1366 413 1421 346 1421 c 0
346 1494 m 0
 455 1494 541 1406 541 1303 c 0
 541 1199 455 1110 346 1110 c 0
 237 1110 151 1196 151 1303 c 0
 151 1406 237 1494 346 1494 c 0
EndSplineSet
Validated: 1
EndChar

StartChar: cedilla
Encoding: 184 184 128
Width: 691
Flags: W
LayerCount: 2
Fore
SplineSet
358 11 m 1
 358 11 375 -62 382 -94 c 1
 495 -110 543 -177 543 -246 c 0
 543 -357 436 -425 312 -425 c 0
 267 -425 227 -415 176 -393 c 1
 189 -336 l 1
 217 -350 245 -356 271 -356 c 0
 330 -356 380 -321 380 -268 c 0
 380 -194 311 -168 228 -164 c 1
 275 11 l 1
 358 11 l 1
EndSplineSet
Validated: 1
EndChar

StartChar: hungarumlaut
Encoding: 733 733 129
Width: 968
Flags: W
LayerCount: 2
Fore
SplineSet
821 1028 m 1
 790 963 675 812 613 724 c 0
 588 689 570 658 550 642 c 1
 536 642 523 647 516 658 c 1
 519 680 524 702 531 725 c 1
 634 948 629 1021 670 1070 c 1
 724 1070 786 1046 821 1028 c 1
517 1027 m 1
 485 961 345 795 293 724 c 0
 267 688 243 658 224 642 c 1
 211 642 199 647 192 656 c 1
 196 680 201 702 208 725 c 1
 304 914 329 1021 366 1070 c 1
 420 1070 482 1047 517 1027 c 1
EndSplineSet
Validated: 1
EndChar

StartChar: ogonek
Encoding: 731 731 130
Width: 691
Flags: W
LayerCount: 2
Fore
SplineSet
282 0 m 1
 310 10 341 17 375 23 c 1
 363 -24 338 -39 324 -68 c 0
 311 -93 303 -119 303 -145 c 0
 303 -230 384 -264 450 -264 c 0
 489 -264 527 -251 564 -234 c 1
 575 -314 l 1
 496 -357 453 -371 383 -371 c 0
 266 -371 171 -302 171 -188 c 0
 171 -110 220 -44 282 0 c 1
EndSplineSet
Validated: 1
EndChar

StartChar: caron
Encoding: 711 711 131
Width: 1032
Flags: W
LayerCount: 2
Fore
SplineSet
599 674 m 1
 559 663 511 654 462 654 c 1
 406 700 329 859 269 975 c 0
 257 997 246 1018 237 1040 c 1
 242 1048 254 1053 273 1053 c 1
 332 1023 391 947 460 874 c 2
 527 802 l 1
 618 911 693 1013 756 1053 c 1
 775 1053 787 1048 792 1040 c 1
 756 950 644 755 599 674 c 1
EndSplineSet
Validated: 1
EndChar

StartChar: emdash
Encoding: 8212 8212 132
Width: 1649
Flags: W
LayerCount: 2
Fore
SplineSet
40 505 m 1
 139 520 248 525 393 525 c 2
 1403 525 l 2
 1453 525 1502 525 1552 525 c 1
 1598 508 1608 487 1608 455 c 1
 1509 438 1400 435 1254 435 c 2
 246 435 l 2
 197 435 147 435 98 435 c 1
 50 452 40 471 40 505 c 1
EndSplineSet
Validated: 1
EndChar

StartChar: AE
Encoding: 198 198 133
Width: 1966
Flags: W
LayerCount: 2
Fore
SplineSet
502 685 m 1
 831 685 l 1
 745 1130 l 1
 502 685 l 1
1415 638 m 1
 1060 638 l 1
 1142 256 l 1
 1165 167 1176 93 1233 78 c 0
 1263 70 1297 71 1341 70 c 1
 1471 73 l 1
 1545 73 1599 78 1653 101 c 1
 1750 124 1749 256 1835 325 c 1
 1851 325 1868 324 1889 322 c 1
 1833 -20 l 1
 1805 -21 1778 -22 1754 -22 c 0
 1731 -22 1726 0 1692 0 c 2
 735 0 l 1
 735 16 734 36 736 52 c 1
 825 73 917 102 917 193 c 0
 917 208 912 223 912 241 c 1
 845 609 l 1
 461 609 l 1
 323 358 l 2
 289 297 245 237 245 178 c 0
 245 86 351 83 438 55 c 1
 438 45 436 35 435 25 c 2
 433 0 l 1
 -47 0 l 1
 -47 9 -48 17 -48 25 c 0
 -48 34 -47 43 -46 52 c 1
 7 81 92 98 144 192 c 0
 293 463 443 733 591 1006 c 0
 622 1064 636 1112 636 1148 c 0
 636 1182 624 1207 601 1224 c 1
 631 1283 641 1309 656 1324 c 1
 705 1324 757 1324 808 1305 c 1
 1546 1305 l 2
 1572 1305 1582 1311 1603 1323 c 1
 1628 1323 1653 1322 1685 1320 c 1
 1741 997 l 1
 1724 996 1707 995 1690 995 c 1
 1608 1048 1595 1183 1508 1207 c 1
 1420 1226 1332 1231 1224 1231 c 2
 1124 1231 l 2
 1049 1231 986 1226 928 1209 c 1
 963 1046 1006 881 1045 719 c 1
 1308 719 l 2
 1362 719 1410 722 1452 729 c 1
 1515 744 1525 835 1540 893 c 1
 1556 893 1573 892 1594 891 c 1
 1689 466 l 1
 1669 465 1650 464 1631 464 c 1
 1565 548 1497 636 1415 638 c 1
EndSplineSet
Validated: 1
EndChar

StartChar: ordfeminine
Encoding: 170 170 134
Width: 708
Flags: W
LayerCount: 2
Fore
SplineSet
439 688 m 1
 439 855 l 1
 256 792 205 781 205 693 c 0
 205 646 238 619 289 619 c 0
 333 619 389 645 439 688 c 1
439 893 m 1
 439 959 l 2
 439 976 438 992 438 1009 c 0
 435 1077 380 1117 314 1117 c 0
 267 1117 205 1091 205 1058 c 0
 205 1036 229 1013 229 995 c 0
 229 968 177 935 149 935 c 0
 127 935 92 977 92 1016 c 0
 92 1117 233 1164 345 1164 c 0
 515 1164 566 1100 566 928 c 2
 566 698 l 2
 566 665 573 649 594 649 c 0
 598 649 603 650 609 651 c 1
 611 617 660 624 662 602 c 1
 640 564 585 546 532 546 c 0
 476 546 445 590 441 644 c 1
 367 581 303 546 227 546 c 0
 142 546 70 592 70 673 c 0
 70 834 268 835 439 893 c 1
EndSplineSet
Validated: 1
EndChar

StartChar: Lslash
Encoding: 321 321 135
Width: 1272
Flags: W
LayerCount: 2
Fore
SplineSet
489 623 m 1
 243 524 l 2
 187 501 156 491 135 491 c 0
 115 491 96 509 96 534 c 0
 96 557 123 577 206 609 c 1
 683 802 l 2
 733 822 765 831 788 831 c 0
 816 831 831 813 831 787 c 0
 831 762 801 750 718 716 c 2
 489 623 l 1
491 1044 m 2
 491 136 l 2
 491 95 501 56 536 56 c 1
 842 67 l 2
 928 70 963 92 992 207 c 0
 1008 273 1031 346 1057 346 c 0
 1060 346 1062 341 1081 341 c 1
 1053 -20 l 1
 1051 -24 1049 -26 1045 -26 c 1
 1000 -13 948 0 886 0 c 2
 50 0 l 1
 47 8 46 15 46 22 c 0
 46 98 276 26 276 142 c 2
 276 1038 l 2
 276 1147 97 1090 48 1159 c 0
 48 1160 49 1166 52 1176 c 1
 722 1176 l 1
 725 1169 726 1162 726 1157 c 0
 726 1089 491 1158 491 1044 c 2
EndSplineSet
Validated: 5
EndChar

StartChar: Oslash
Encoding: 216 216 136
Width: 1579
Flags: W
LayerCount: 2
Fore
SplineSet
1117 1046 m 1
 947 807 759 522 558 171 c 1
 630 93 723 51 826 51 c 0
 1065 51 1247 248 1247 586 c 0
 1247 768 1197 931 1117 1046 c 1
479 247 m 1
 1045 1127 l 1
 969 1205 867 1250 758 1250 c 0
 528 1250 334 1059 334 723 c 0
 334 532 392 357 479 247 c 1
1122 1241 m 1
 1167 1320 1175 1383 1256 1413 c 1
 1294 1402 1310 1379 1323 1356 c 1
 1298 1314 1271 1277 1216 1189 c 1
 1377 1068 1480 880 1480 648 c 0
 1480 239 1155 -26 772 -26 c 0
 662 -26 562 0 478 57 c 1
 430 -31 396 -104 330 -136 c 1
 306 -125 283 -100 271 -71 c 1
 284 -50 299 -27 315 -5 c 1
 382 105 l 1
 206 223 101 394 101 641 c 0
 101 1060 416 1327 794 1327 c 0
 915 1327 1023 1300 1122 1241 c 1
EndSplineSet
Validated: 1
EndChar

StartChar: OE
Encoding: 338 338 137
Width: 2091
Flags: W
LayerCount: 2
Fore
SplineSet
325 718 m 0
 325 422 456 81 769 81 c 0
 958 81 1081 215 1106 402 c 1
 1106 635 1090 862 1062 1071 c 1
 993 1164 886 1224 725 1224 c 0
 486 1224 325 1031 325 718 c 0
1338 719 m 1
 1444 720 1563 719 1645 733 c 1
 1712 749 1728 838 1757 897 c 1
 1776 897 1796 897 1820 895 c 1
 1820 461 l 1
 1799 459 1778 458 1757 458 c 1
 1729 522 1702 615 1638 630 c 1
 1603 637 1564 640 1519 641 c 2
 1340 643 l 1
 1340 434 1286 263 1155 106 c 1
 1155 88 1159 69 1174 69 c 0
 1310 70 1445 70 1580 72 c 0
 1645 73 1705 80 1761 92 c 0
 1876 117 1881 255 1962 323 c 1
 1979 323 1997 323 2021 321 c 1
 1969 -20 l 1
 1935 -21 1903 -22 1872 -22 c 0
 1850 -22 1844 0 1810 0 c 2
 758 0 l 2
 343 0 91 290 91 657 c 0
 91 1059 393 1301 773 1302 c 2
 1276 1303 l 2
 1398 1303 1486 1302 1553 1302 c 0
 1699 1302 1748 1305 1846 1323 c 1
 1879 1323 1913 1322 1953 1320 c 1
 1953 993 l 1
 1935 991 1918 990 1902 990 c 1
 1842 1051 1841 1192 1732 1213 c 1
 1615 1233 1423 1229 1260 1231 c 0
 1226 1231 1149 1226 1149 1196 c 1
 1259 1081 1323 921 1338 719 c 1
EndSplineSet
Validated: 1
EndChar

StartChar: ordmasculine
Encoding: 186 186 138
Width: 791
Flags: W
LayerCount: 2
Fore
SplineSet
209 893 m 0
 209 711 302 602 408 602 c 0
 506 602 588 680 588 808 c 0
 588 945 525 1119 386 1119 c 0
 283 1119 209 1040 209 893 c 0
72 861 m 0
 72 1043 225 1164 392 1164 c 0
 571 1164 719 1048 719 858 c 0
 719 667 570 547 399 547 c 0
 226 547 72 672 72 861 c 0
EndSplineSet
Validated: 1
EndChar

StartChar: ae
Encoding: 230 230 139
Width: 1447
Flags: W
LayerCount: 2
Fore
SplineSet
805 544 m 1
 1114 583 l 1
 1144 589 1173 600 1197 614 c 1
 1178 768 1127 852 1014 852 c 0
 871 852 807 725 805 544 c 1
657 185 m 1
 625 267 618 362 617 446 c 1
 589 440 562 434 539 427 c 0
 325 362 262 329 262 205 c 0
 262 132 321 92 396 92 c 0
 486 92 594 138 657 185 c 1
1382 554 m 1
 804 486 l 1
 804 478 804 470 804 462 c 0
 804 234 861 128 1083 128 c 0
 1204 128 1271 157 1345 208 c 1
 1356 200 1366 191 1374 179 c 1
 1320 43 1164 -20 1021 -20 c 0
 875 -20 771 37 690 132 c 1
 577 34 425 -20 297 -20 c 0
 168 -20 69 47 69 172 c 0
 69 421 361 433 613 501 c 1
 613 622 l 2
 613 750 572 852 448 852 c 0
 408 852 272 828 272 760 c 0
 272 723 307 695 307 669 c 0
 307 644 241 578 191 578 c 0
 142 578 103 660 103 711 c 0
 103 876 369 924 486 924 c 0
 635 924 718 873 759 791 c 1
 810 863 902 926 1049 926 c 0
 1257 926 1382 759 1382 554 c 1
EndSplineSet
Validated: 1
EndChar

StartChar: dotlessi
Encoding: 305 305 140
Width: 589
Flags: W
LayerCount: 2
Fore
SplineSet
219 181 m 2
 219 707 l 1
 189 759 96 757 67 791 c 1
 67 802 68 813 69 826 c 1
 346 906 l 1
 405 912 l 1
 405 220 l 2
 405 187 408 159 415 135 c 1
 427 68 530 71 559 50 c 1
 559 33 558 17 557 0 c 1
 49 0 l 1
 47 18 47 34 47 50 c 1
 91 74 219 83 219 181 c 2
EndSplineSet
Validated: 1
EndChar

StartChar: lslash
Encoding: 322 322 141
Width: 578
Flags: W
LayerCount: 2
Fore
SplineSet
469 702 m 2
 167 621 l 2
 116 607 84 601 64 601 c 0
 38 601 23 616 23 645 c 0
 23 670 49 684 141 709 c 2
 445 791 l 2
 488 803 519 808 540 808 c 0
 573 808 590 793 590 767 c 0
 590 736 568 728 469 702 c 2
196 126 m 2
 195 1122 l 2
 195 1191 -1 1195 -1 1227 c 0
 -1 1232 0 1238 3 1244 c 1
 402 1314 l 1
 402 120 l 2
 402 28 580 66 580 18 c 0
 580 12 579 6 576 0 c 1
 16 0 l 1
 13 9 12 14 12 17 c 0
 12 74 196 32 196 126 c 2
EndSplineSet
Validated: 5
EndChar

StartChar: oslash
Encoding: 248 248 142
Width: 1111
Flags: W
LayerCount: 2
Fore
SplineSet
762 698 m 1
 656 548 542 368 417 144 c 1
 466 88 514 62 570 62 c 0
 731 62 835 187 835 372 c 0
 835 496 808 613 762 698 c 1
354 219 m 1
 708 772 l 1
 663 832 608 860 535 860 c 0
 403 860 282 755 282 524 c 0
 282 391 309 298 354 219 c 1
184 -35 m 1
 262 91 l 1
 153 178 82 302 82 460 c 0
 82 740 301 926 549 926 c 0
 630 926 705 907 776 867 c 1
 801 900 l 1
 822 951 850 1017 875 1026 c 1
 910 1017 938 1000 949 970 c 1
 934 941 903 908 852 821 c 1
 958 744 1029 617 1029 456 c 0
 1029 165 812 -20 559 -20 c 0
 482 -20 413 1 348 42 c 1
 302 -51 l 1
 284 -91 258 -105 236 -114 c 1
 207 -106 191 -63 184 -35 c 1
EndSplineSet
Validated: 1
EndChar

StartChar: oe
Encoding: 339 339 143
Width: 1620
Flags: W
LayerCount: 2
Fore
SplineSet
967 590 m 1
 1281 597 l 2
 1312 598 1341 602 1365 612 c 1
 1359 770 1295 860 1178 860 c 0
 1050 860 980 744 967 590 c 1
286 504 m 0
 286 266 342 46 564 46 c 0
 739 46 789 227 789 395 c 0
 789 653 717 860 516 860 c 0
 369 860 286 732 286 504 c 0
1556 529 m 1
 966 529 l 1
 971 265 1076 121 1278 121 c 0
 1386 121 1446 152 1517 205 c 1
 1528 200 1539 192 1547 183 c 1
 1510 56 1344 -21 1217 -21 c 0
 1079 -21 960 36 879 154 c 1
 794 38 676 -21 548 -21 c 0
 293 -21 87 168 87 451 c 0
 87 689 262 926 539 926 c 0
 674 926 789 872 879 755 c 1
 963 876 1067 928 1208 928 c 0
 1432 928 1550 757 1556 529 c 1
EndSplineSet
Validated: 1
EndChar

StartChar: germandbls
Encoding: 223 223 144
Width: 1200
Flags: W
LayerCount: 2
Fore
SplineSet
197 252 m 2
 197 795 l 1
 167 795 137 795 107 795 c 1
 107 819 97 850 134 850 c 0
 137 850 141 850 144 850 c 0
 159 850 174 851 185 862 c 1
 227 966 210 1111 330 1221 c 0
 402 1287 494 1322 619 1322 c 0
 850 1322 1021 1205 1021 1026 c 0
 1021 875 934 793 764 744 c 0
 764 743 764 742 764 741 c 0
 989 713 1123 547 1123 365 c 0
 1123 185 1001 -17 764 -17 c 0
 638 -17 559 49 559 133 c 0
 559 180 596 215 641 215 c 0
 749 215 675 84 745 73 c 1
 753 64 772 59 792 59 c 0
 866 59 936 166 936 309 c 0
 936 497 843 632 663 674 c 1
 635 684 608 696 584 707 c 1
 584 730 589 752 597 769 c 1
 769 786 840 881 840 1020 c 0
 840 1165 729 1246 601 1246 c 0
 472 1246 395 1151 386 978 c 0
 384 941 383 904 383 866 c 2
 383 249 l 2
 383 189 387 147 407 116 c 1
 416 58 484 82 502 50 c 1
 502 34 502 17 500 0 c 1
 41 0 l 1
 39 18 39 35 39 52 c 1
 80 85 174 75 188 156 c 0
 194 186 197 217 197 252 c 2
EndSplineSet
Validated: 1
EndChar

StartChar: onesuperior
Encoding: 65538 -1 145
Width: 610
Flags: W
LayerCount: 2
Fore
SplineSet
391 1187 m 2
 391 487 l 2
 391 399 548 455 548 407 c 0
 548 403 547 399 544 392 c 1
 78 392 l 1
 76 400 75 404 75 405 c 0
 75 449 227 411 227 491 c 2
 227 1103 l 2
 227 1181 74 1151 74 1193 c 0
 74 1197 75 1201 78 1206 c 1
 388 1291 l 1
 392 1291 394 1287 394 1278 c 0
 394 1233 391 1200 391 1187 c 2
EndSplineSet
Validated: 1
EndChar

StartChar: logicalnot
Encoding: 172 172 146
Width: 1345
Flags: W
LayerCount: 2
Fore
SplineSet
141 893 m 1
 191 893 248 893 303 893 c 2
 1048 895 l 2
 1097 895 1141 891 1183 885 c 1
 1196 804 1198 631 1198 509 c 0
 1198 469 1198 434 1198 410 c 0
 1198 366 1197 316 1167 286 c 1
 1108 286 1073 309 1043 314 c 1
 1043 439 1043 556 1043 744 c 1
 859 744 l 2
 645 744 387 742 230 742 c 0
 186 742 139 744 109 773 c 1
 109 830 133 863 141 893 c 1
EndSplineSet
Validated: 1
EndChar

StartChar: mu
Encoding: 65539 -1 147
Width: 1325
Flags: W
LayerCount: 2
Fore
SplineSet
340 159 m 1
 404 -135 l 2
 416 -190 420 -231 420 -262 c 0
 420 -349 392 -363 357 -363 c 0
 289 -363 248 -314 248 -135 c 2
 248 721 l 2
 248 811 77 785 77 832 c 0
 77 839 77 838 80 849 c 1
 99 850 118 852 139 854 c 2
 267 865 l 2
 322 870 384 875 454 880 c 1
 454 388 l 2
 454 129 528 66 615 66 c 0
 703 66 809 110 880 208 c 1
 880 724 l 2
 880 810 706 781 706 834 c 2
 706 838 l 2
 706 841 706 842 709 849 c 1
 724 849 906 867 1086 880 c 1
 1086 142 l 2
 1086 58 1262 93 1262 50 c 0
 1262 47 1260 41 1257 32 c 1
 903 -18 l 1
 883 136 l 1
 787 24 677 -17 575 -17 c 0
 434 -17 361 104 346 146 c 1
 340 159 l 1
EndSplineSet
Validated: 1
EndChar

StartChar: trademark
Encoding: 8482 8482 148
Width: 1936
Flags: W
LayerCount: 2
Fore
SplineSet
824 1289 m 1
 1081 1289 l 1
 1356 719 l 1
 1605 1289 l 1
 1870 1289 l 1
 1870 1280 1871 1271 1871 1264 c 1
 1833 1249 1760 1257 1755 1206 c 0
 1753 1184 1750 1159 1751 1126 c 0
 1753 978 1754 831 1757 683 c 0
 1757 652 1759 628 1762 607 c 0
 1768 558 1840 569 1879 552 c 1
 1879 544 1879 538 1878 528 c 1
 1489 528 l 1
 1489 537 1488 544 1488 552 c 1
 1527 569 1597 556 1605 609 c 0
 1608 629 1609 654 1609 685 c 2
 1606 1171 l 2
 1605 1171 1604 1171 1603 1171 c 2
 1324 528 l 1
 1291 528 l 1
 999 1132 l 2
 998 1132 997 1132 996 1132 c 2
 995 683 l 2
 995 538 1058 574 1121 552 c 1
 1121 544 1121 538 1120 528 c 1
 818 528 l 1
 817 537 817 544 817 552 c 1
 855 568 924 557 933 608 c 0
 936 628 938 654 938 685 c 2
 943 1124 l 2
 943 1132 943 1140 943 1147 c 0
 943 1169 942 1188 940 1204 c 0
 934 1257 861 1249 823 1264 c 1
 823 1271 823 1281 824 1289 c 1
46 1097 m 1
 66 1301 l 1
 90 1301 109 1301 127 1301 c 0
 138 1301 145 1290 157 1290 c 2
 662 1290 l 2
 668 1290 681 1300 686 1301 c 1
 744 1301 l 1
 768 1097 l 1
 760 1096 752 1096 745 1096 c 1
 723 1137 708 1219 650 1231 c 0
 626 1236 600 1240 568 1240 c 2
 481 1241 l 1
 481 683 l 2
 481 653 482 628 485 607 c 0
 491 559 565 570 598 552 c 1
 598 545 598 537 597 528 c 1
 211 528 l 1
 211 536 211 543 211 552 c 1
 246 574 318 559 324 610 c 0
 327 630 328 654 328 684 c 2
 328 1241 l 1
 254 1240 l 2
 189 1239 163 1236 136 1195 c 1
 102 1174 83 1137 69 1096 c 1
 61 1096 55 1096 46 1097 c 1
EndSplineSet
Validated: 33
EndChar

StartChar: Eth
Encoding: 208 208 149
Width: 1595
Flags: W
LayerCount: 2
Fore
SplineSet
665 1225 m 2
 497 1225 l 1
 497 271 l 2
 497 166 530 85 645 80 c 0
 682 78 723 77 760 77 c 0
 1106 77 1264 352 1264 609 c 0
 1264 954 1084 1225 665 1225 c 2
282 219 m 2
 282 1010 l 2
 282 1053 278 1094 272 1131 c 0
 257 1212 132 1226 58 1251 c 1
 58 1266 59 1283 60 1302 c 1
 652 1302 l 2
 982 1302 1180 1253 1334 1087 c 1
 1456 959 1502 820 1502 658 c 0
 1502 321 1257 0 779 0 c 2
 60 0 l 1
 59 18 58 35 58 52 c 1
 155 81 282 81 282 219 c 2
691 580 m 1
 89 580 l 1
 89 708 l 1
 691 708 l 1
 691 580 l 1
EndSplineSet
Validated: 5
EndChar

StartChar: onehalf
Encoding: 189 189 150
Width: 1831
Flags: W
LayerCount: 2
Fore
SplineSet
395 1295 m 1
 395 1265 394 1241 394 1224 c 2
 394 685 l 2
 394 616 397 563 473 559 c 0
 496 558 519 557 525 548 c 1
 525 536 524 524 523 512 c 1
 114 512 l 1
 113 525 112 537 112 547 c 1
 148 565 231 550 240 606 c 0
 243 623 244 641 244 663 c 2
 244 1084 l 2
 244 1199 169 1176 115 1199 c 1
 115 1210 115 1222 116 1234 c 1
 222 1246 299 1271 361 1301 c 1
 373 1301 385 1299 395 1295 c 1
505 -77 m 1
 487 -81 469 -81 452 -81 c 2
 419 -81 l 1
 434 -36 454 23 477 91 c 1
 987 1045 l 1
 1023 1109 1073 1211 1099 1269 c 1
 1125 1314 1155 1369 1215 1410 c 1
 1261 1410 1284 1398 1305 1386 c 1
 1279 1342 1252 1298 1227 1254 c 0
 1098 1030 887 729 602 71 c 1
 571 16 539 -32 505 -77 c 1
1679 269 m 1
 1636 46 l 1
 1613 45 1592 45 1571 45 c 0
 1528 45 1424 46 1320 46 c 0
 1248 46 1177 46 1114 45 c 1
 1110 88 l 1
 1354 366 1492 453 1492 620 c 0
 1492 699 1442 761 1364 761 c 0
 1284 761 1202 698 1152 636 c 1
 1137 640 1122 646 1109 654 c 1
 1118 676 1129 696 1141 713 c 1
 1141 715 1141 717 1142 718 c 0
 1207 796 1289 842 1390 842 c 0
 1556 842 1653 743 1653 621 c 0
 1653 439 1478 373 1253 139 c 1
 1462 145 l 1
 1542 149 1589 153 1615 233 c 1
 1619 251 1628 270 1635 270 c 0
 1649 270 1662 270 1679 269 c 1
EndSplineSet
Validated: 1
EndChar

StartChar: plusminus
Encoding: 177 177 151
Width: 1099
Flags: W
LayerCount: 2
Fore
SplineSet
107 618 m 1
 151 635 198 639 291 639 c 2
 482 639 l 1
 482 828 l 2
 482 906 483 963 490 1012 c 1
 508 1014 529 1015 550 1015 c 0
 571 1015 590 1015 608 1012 c 1
 615 964 617 906 617 830 c 2
 617 639 l 1
 806 639 l 2
 883 639 941 636 990 629 c 1
 992 611 993 591 993 570 c 0
 993 549 992 530 990 512 c 1
 941 506 884 505 806 505 c 2
 617 505 l 1
 617 315 l 2
 617 238 614 181 607 132 c 1
 588 130 568 129 548 129 c 0
 526 129 507 130 489 132 c 1
 483 181 482 237 482 315 c 2
 482 505 l 1
 292 505 l 2
 248 505 203 505 159 505 c 1
 109 535 107 568 107 618 c 1
EndSplineSet
Validated: 1
EndChar

StartChar: Thorn
Encoding: 222 222 152
Width: 1294
Flags: W
LayerCount: 2
Fore
SplineSet
489 957 m 1
 489 380 l 1
 547 377 606 375 665 375 c 0
 888 375 1006 488 1006 654 c 0
 1006 811 900 943 673 952 c 1
 612 956 548 957 489 957 c 1
273 214 m 2
 273 1048 l 2
 273 1089 268 1125 258 1154 c 1
 239 1228 114 1225 67 1251 c 1
 67 1266 67 1283 68 1302 c 1
 701 1302 l 1
 702 1283 703 1266 703 1250 c 1
 629 1222 489 1216 489 1072 c 2
 489 1033 l 1
 592 1033 692 1031 788 1024 c 1
 1103 1009 1240 858 1240 668 c 0
 1240 483 1098 300 718 300 c 0
 643 300 566 303 489 308 c 1
 489 202 l 2
 489 96 619 75 719 51 c 1
 719 35 718 18 717 0 c 1
 68 0 l 1
 67 18 66 35 66 52 c 1
 147 81 273 84 273 214 c 2
EndSplineSet
Validated: 1
EndChar

StartChar: onequarter
Encoding: 188 188 153
Width: 1894
Flags: W
LayerCount: 2
Fore
SplineSet
398 1295 m 1
 398 1265 397 1241 397 1224 c 2
 397 685 l 2
 397 616 400 563 476 559 c 0
 498 558 522 557 527 548 c 1
 527 536 527 524 526 512 c 1
 116 512 l 1
 115 525 115 537 115 547 c 1
 151 565 233 550 242 606 c 0
 245 623 247 641 247 663 c 2
 247 1084 l 2
 247 1199 171 1176 117 1199 c 1
 117 1210 118 1222 119 1234 c 1
 225 1246 302 1271 364 1301 c 1
 376 1301 388 1299 398 1295 c 1
543 -77 m 1
 525 -81 506 -81 489 -81 c 2
 456 -81 l 1
 470 -40 485 14 511 73 c 1
 511 78 512 85 515 91 c 2
 1024 1045 l 1
 1060 1109 1111 1211 1136 1269 c 1
 1162 1314 1193 1369 1253 1410 c 1
 1298 1410 1322 1398 1343 1386 c 1
 1317 1342 1290 1298 1265 1254 c 0
 1135 1030 925 729 640 71 c 1
 609 16 576 -32 543 -77 c 1
1202 325 m 1
 1467 325 l 1
 1467 716 l 1
 1466 716 1465 716 1465 716 c 1
 1202 325 l 1
1745 251 m 1
 1617 251 l 1
 1617 155 l 2
 1617 98 1693 99 1743 84 c 1
 1743 73 1743 59 1742 47 c 1
 1343 47 l 1
 1342 60 1342 72 1342 83 c 1
 1387 100 1467 94 1467 155 c 2
 1467 251 l 1
 1116 251 l 1
 1111 319 l 1
 1477 840 l 1
 1540 843 l 2
 1567 844 1595 846 1617 846 c 1
 1617 328 l 1
 1647 328 1671 340 1695 366 c 1
 1734 366 1752 358 1764 347 c 1
 1762 330 1757 312 1754 296 c 2
 1745 251 l 1
EndSplineSet
Validated: 1
EndChar

StartChar: divide
Encoding: 247 247 154
Width: 1262
Flags: W
LayerCount: 2
Fore
SplineSet
630 888 m 0
 564 888 510 941 510 1006 c 0
 510 1069 564 1126 630 1126 c 0
 697 1126 752 1069 752 1006 c 0
 752 944 697 888 630 888 c 0
630 125 m 0
 564 125 510 178 510 243 c 0
 510 306 564 362 630 362 c 0
 697 362 752 306 752 243 c 0
 752 180 697 125 630 125 c 0
138 699 m 1
 424 699 711 700 1018 700 c 0
 1080 700 1120 684 1155 669 c 1
 1155 625 1153 581 1123 551 c 1
 832 551 543 548 243 548 c 0
 193 548 141 550 106 579 c 1
 106 636 130 669 138 699 c 1
EndSplineSet
Validated: 1
EndChar

StartChar: brokenbar
Encoding: 166 166 155
Width: 826
Flags: W
LayerCount: 2
Fore
SplineSet
355 160 m 1
 355 407 l 1
 372 435 406 443 438 443 c 1
 452 416 471 383 471 326 c 2
 470 169 l 2
 469 108 473 44 473 -17 c 0
 473 -103 467 -181 438 -229 c 1
 394 -229 374 -205 357 -197 c 1
 357 -128 356 -46 356 32 c 2
 355 160 l 1
355 1343 m 1
 372 1370 406 1379 438 1379 c 1
 452 1345 471 1305 471 1242 c 2
 470 1064 l 2
 469 954 470 836 470 739 c 1
 453 724 433 707 387 707 c 1
 358 791 353 915 353 1059 c 0
 353 1147 355 1243 355 1343 c 1
EndSplineSet
Validated: 33
EndChar

StartChar: degree
Encoding: 176 176 156
Width: 703
Flags: W
LayerCount: 2
Fore
SplineSet
593 1045 m 0
 593 914 486 803 351 803 c 0
 214 803 106 911 106 1045 c 0
 106 1177 214 1287 351 1287 c 0
 486 1287 593 1177 593 1045 c 0
543 1045 m 0
 543 1145 458 1233 352 1233 c 0
 246 1233 160 1145 160 1045 c 0
 160 940 246 855 352 855 c 0
 458 855 543 943 543 1045 c 0
EndSplineSet
Validated: 1
EndChar

StartChar: thorn
Encoding: 254 254 157
Width: 1134
Flags: W
LayerCount: 2
Fore
SplineSet
352 677 m 1
 352 339 l 2
 352 181 392 66 605 66 c 0
 770 66 862 205 862 423 c 0
 862 693 724 796 594 796 c 0
 501 796 416 739 352 677 c 1
352 35 m 1
 352 -144 l 2
 352 -183 355 -215 363 -242 c 1
 378 -311 491 -304 536 -328 c 1
 536 -344 535 -360 534 -378 c 1
 8 -378 l 1
 6 -360 5 -344 5 -328 c 1
 34 -306 130 -311 144 -255 c 1
 158 -224 166 -187 166 -146 c 2
 166 1165 l 1
 138 1210 26 1227 -1 1256 c 1
 -1 1267 -1 1279 1 1290 c 1
 94 1316 187 1342 280 1369 c 1
 352 1376 l 1
 352 764 l 1
 435 855 537 926 668 926 c 0
 879 926 1048 742 1048 481 c 0
 1048 166 839 -18 592 -18 c 0
 502 -18 423 2 352 35 c 1
EndSplineSet
Validated: 1
EndChar

StartChar: threequarters
Encoding: 190 190 158
Width: 1931
Flags: W
LayerCount: 2
Fore
SplineSet
256 889 m 1
 226 932 l 1
 406 1021 466 1073 466 1140 c 0
 466 1188 432 1226 369 1226 c 0
 297 1226 225 1177 158 1132 c 1
 144 1138 132 1148 122 1159 c 1
 165 1248 308 1302 395 1302 c 0
 521 1302 595 1234 595 1152 c 0
 595 1081 544 1017 439 982 c 1
 586 976 664 876 664 763 c 0
 664 627 520 496 310 496 c 0
 232 496 107 516 78 589 c 1
 84 616 106 640 130 648 c 1
 179 632 218 610 246 597 c 1
 246 586 240 577 240 570 c 0
 240 555 276 546 291 546 c 0
 430 546 516 648 516 749 c 0
 516 838 456 914 365 914 c 0
 333 914 296 907 256 889 c 1
625 -77 m 1
 607 -81 588 -81 571 -81 c 2
 538 -81 l 1
 553 -36 574 23 597 91 c 1
 1107 1045 l 1
 1143 1109 1193 1211 1218 1269 c 1
 1244 1314 1275 1369 1335 1410 c 1
 1380 1410 1404 1398 1425 1386 c 1
 1399 1342 1372 1298 1347 1254 c 0
 1217 1030 1007 729 722 71 c 1
 691 16 658 -32 625 -77 c 1
1262 325 m 1
 1527 325 l 1
 1527 716 l 1
 1527 716 1526 716 1525 716 c 2
 1262 325 l 1
1805 251 m 1
 1677 251 l 1
 1677 155 l 2
 1677 98 1753 99 1803 84 c 1
 1803 73 1803 59 1802 47 c 1
 1402 47 l 1
 1402 51 1401 56 1401 60 c 0
 1401 68 1402 76 1402 83 c 1
 1447 100 1527 94 1527 155 c 2
 1527 251 l 1
 1176 251 l 1
 1171 319 l 1
 1537 840 l 1
 1600 843 l 2
 1628 844 1656 846 1677 846 c 1
 1677 328 l 1
 1708 328 1731 340 1755 366 c 1
 1794 366 1813 358 1825 347 c 1
 1822 330 1818 312 1815 296 c 2
 1805 251 l 1
EndSplineSet
Validated: 1
EndChar

StartChar: twosuperior
Encoding: 65540 -1 159
Width: 766
Flags: W
LayerCount: 2
Fore
SplineSet
231 469 m 1
 493 492 l 2
 546 496 568 500 585 572 c 0
 595 613 617 658 633 658 c 0
 636 658 637 658 648 655 c 1
 631 383 l 1
 624 382 621 382 617 382 c 0
 610 382 457 384 306 384 c 0
 230 384 156 383 100 382 c 1
 89 422 l 1
 345 771 458 846 458 1048 c 0
 458 1161 411 1227 324 1227 c 0
 245 1227 164 1188 114 1158 c 0
 109 1155 103 1152 95 1151 c 1
 86 1151 82 1158 82 1170 c 0
 82 1175 83 1179 85 1182 c 2
 88 1186 l 1
 142 1256 248 1298 341 1298 c 0
 554 1298 639 1182 639 1050 c 0
 639 844 463 743 231 469 c 1
EndSplineSet
Validated: 1
EndChar

StartChar: registered
Encoding: 174 174 160
Width: 1507
Flags: W
LayerCount: 2
Fore
SplineSet
1350 627 m 0
 1350 969 1110 1249 748 1249 c 0
 404 1249 162 982 162 666 c 0
 162 314 413 41 772 41 c 0
 1092 41 1350 300 1350 627 c 0
1435 646 m 0
 1435 258 1130 -23 753 -23 c 0
 397 -23 73 255 73 646 c 0
 73 1033 395 1314 754 1314 c 0
 1111 1314 1435 1041 1435 646 c 0
630 1018 m 1
 630 680 l 1
 813 683 910 723 910 853 c 0
 910 971 820 1024 697 1024 c 0
 677 1024 655 1022 630 1018 c 1
701 641 m 1
 630 644 l 1
 630 338 l 2
 630 276 698 280 745 266 c 1
 745 257 745 251 744 241 c 1
 378 241 l 1
 377 249 376 257 376 266 c 1
 422 283 485 280 485 349 c 2
 485 951 l 2
 485 1014 427 1026 384 1045 c 1
 384 1052 384 1060 385 1069 c 1
 669 1069 l 2
 695 1069 720 1069 746 1069 c 0
 925 1066 1064 998 1064 857 c 0
 1064 740 968 678 838 652 c 1
 900 554 962 456 1026 357 c 0
 1056 310 1075 292 1109 282 c 1
 1113 265 1146 273 1146 241 c 1
 947 241 l 1
 866 366 780 501 701 641 c 1
EndSplineSet
Validated: 1
EndChar

StartChar: minus
Encoding: 8722 8722 161
Width: 1145
Flags: W
LayerCount: 2
Fore
SplineSet
135 615 m 1
 169 630 215 635 296 635 c 2
 848 635 l 2
 883 635 918 635 953 635 c 1
 999 605 1011 568 1011 523 c 1
 941 506 861 505 744 505 c 2
 297 505 l 2
 262 505 227 505 192 505 c 1
 145 535 135 568 135 615 c 1
EndSplineSet
Validated: 1
EndChar

StartChar: eth
Encoding: 240 240 162
Width: 1074
Flags: W
LayerCount: 2
Fore
SplineSet
929 1262 m 1
 911 1240 878 1224 820 1202 c 1
 734 1159 l 1
 900 991 990 747 990 507 c 0
 990 188 781 -22 525 -22 c 0
 282 -22 65 173 65 443 c 0
 65 727 253 926 503 926 c 0
 587 926 674 886 731 837 c 0
 732 837 733 838 734 839 c 1
 717 925 678 1018 612 1104 c 1
 525 1067 l 1
 475 1042 433 1021 395 1004 c 1
 377 1015 363 1031 356 1055 c 1
 377 1077 408 1097 468 1120 c 1
 564 1167 l 1
 504 1236 402 1312 352 1347 c 1
 367 1358 383 1369 399 1380 c 1
 487 1346 589 1300 676 1218 c 1
 846 1306 l 1
 894 1306 924 1294 929 1262 c 1
265 490 m 0
 265 286 361 57 531 57 c 0
 686 57 793 192 793 428 c 0
 793 492 786 566 775 638 c 1
 728 743 643 849 515 849 c 0
 352 849 265 714 265 490 c 0
EndSplineSet
Validated: 1
EndChar

StartChar: multiply
Encoding: 215 215 163
Width: 1098
Flags: W
LayerCount: 2
Fore
SplineSet
141 932 m 1
 162 961 205 1002 234 1023 c 1
 324 947 446 820 549 717 c 1
 651 820 773 947 864 1023 c 1
 893 1002 935 961 957 932 c 1
 938 908 914 884 883 853 c 2
 648 618 l 1
 751 515 880 391 956 303 c 1
 935 274 893 232 864 211 c 1
 839 230 814 253 784 284 c 2
 549 519 l 1
 315 285 l 2
 284 254 259 231 235 212 c 1
 206 233 164 275 143 304 c 1
 162 328 186 354 215 383 c 2
 450 618 l 1
 215 853 l 2
 184 884 160 908 141 932 c 1
EndSplineSet
Validated: 1
EndChar

StartChar: threesuperior
Encoding: 65541 -1 164
Width: 762
Flags: W
LayerCount: 2
Fore
SplineSet
404 917 m 1
 588 917 683 787 683 640 c 0
 683 514 570 372 335 372 c 0
 256 372 66 395 66 521 c 0
 66 564 103 600 144 600 c 0
 180 600 212 565 212 533 c 0
 212 508 197 487 197 471 c 0
 197 435 280 414 317 414 c 0
 465 414 518 540 518 637 c 0
 518 756 464 863 332 863 c 0
 309 863 285 860 258 854 c 1
 224 892 l 1
 397 975 484 1042 484 1117 c 0
 484 1176 464 1224 379 1224 c 0
 304 1224 233 1187 181 1157 c 1
 177 1153 171 1150 163 1149 c 1
 152 1149 149 1157 149 1168 c 0
 149 1173 150 1177 152 1180 c 2
 155 1184 l 1
 208 1253 306 1294 397 1294 c 0
 536 1294 602 1208 602 1118 c 0
 602 1026 535 930 404 917 c 1
EndSplineSet
Validated: 1
EndChar

StartChar: copyright
Encoding: 169 169 165
Width: 1507
Flags: W
LayerCount: 2
Fore
SplineSet
1350 627 m 0
 1350 969 1110 1249 748 1249 c 0
 404 1249 162 982 162 666 c 0
 162 314 413 41 772 41 c 0
 1092 41 1350 300 1350 627 c 0
1435 646 m 0
 1435 258 1130 -23 753 -23 c 0
 397 -23 73 255 73 646 c 0
 73 1033 395 1314 754 1314 c 0
 1111 1314 1435 1041 1435 646 c 0
1080 1080 m 1
 1101 840 l 1
 1089 838 1081 838 1071 838 c 1
 1051 861 1032 920 1013 948 c 0
 963 1020 878 1055 775 1055 c 0
 594 1055 471 901 471 678 c 0
 471 424 594 282 801 282 c 0
 932 282 1002 322 1088 392 c 1
 1098 389 1107 382 1114 376 c 1
 1059 269 904 205 763 205 c 0
 505 205 310 388 310 647 c 0
 310 901 511 1081 756 1096 c 1
 835 1096 884 1074 919 1074 c 0
 931 1074 938 1080 946 1100 c 1
 988 1100 1035 1090 1080 1080 c 1
EndSplineSet
Validated: 1
EndChar

StartChar: foursuperior
Encoding: 65542 -1 224
Width: 862
Flags: W
LayerCount: 2
Fore
SplineSet
440 484 m 2
 440 610 l 1
 60 610 l 1
 49 676 l 1
 432 1301 l 1
 502 1307 l 2
 541 1310 581 1314 604 1314 c 1
 604 702 l 1
 703 702 l 2
 766 702 782 683 782 659 c 0
 782 647 777 635 772 626 c 2
 763 610 l 1
 604 610 l 1
 604 480 l 2
 604 412 759 445 759 412 c 0
 759 408 759 398 756 393 c 1
 294 393 l 1
 292 397 292 401 292 403 c 0
 292 451 440 416 440 484 c 2
440 696 m 1
 440 1184 l 1
 154 696 l 1
 440 696 l 1
EndSplineSet
Validated: 1
EndChar

StartChar: uni00AD
Encoding: 173 173 226
Width: 772
Flags: W
LayerCount: 2
Fore
SplineSet
586 391 m 2
 151 391 l 1
 120 406 120 423 120 461 c 0
 120 485 120 506 124 525 c 1
 152 529 183 530 221 530 c 2
 586 530 l 2
 625 530 657 528 685 524 c 1
 689 504 689 482 689 458 c 0
 689 432 689 412 685 394 c 1
 658 391 625 391 586 391 c 2
EndSplineSet
Validated: 1
EndChar

StartChar: Dcroat
Encoding: 272 272 241
Width: 1420
Flags: W
LayerCount: 2
Fore
SplineSet
936 1419 m 1
 936 1301 l 1
 443 1301 l 1
 443 1419 l 1
 936 1419 l 1
665 1225 m 2
 497 1225 l 1
 497 271 l 2
 497 166 530 85 645 80 c 0
 682 78 723 77 760 77 c 0
 1106 77 1264 352 1264 609 c 0
 1264 954 1084 1225 665 1225 c 2
282 219 m 2
 282 1010 l 2
 282 1053 278 1094 272 1131 c 0
 257 1212 131 1226 58 1251 c 1
 60 1302 l 1
 652 1302 l 2
 1128 1302 1502 1130 1502 658 c 0
 1502 321 1257 0 779 0 c 2
 60 0 l 1
 58 52 l 1
 155 81 282 81 282 219 c 2
EndSplineSet
Validated: 5
EndChar

StartChar: dslash
Encoding: 273 273 242
Width: 1187
Flags: W
LayerCount: 2
Fore
SplineSet
1121 981 m 1
 519 981 l 1
 519 1109 l 1
 1121 1109 l 1
 1121 981 l 1
799 222 m 1
 799 510 l 2
 799 625 788 706 713 772 c 0
 661 818 598 846 534 846 c 0
 370 846 266 671 266 477 c 0
 266 296 362 99 562 99 c 0
 669 99 748 154 799 222 c 1
799 849 m 1
 799 1175 l 1
 770 1220 629 1266 629 1266 c 1
 631 1301 l 1
 913 1369 l 1
 985 1376 l 1
 985 199 l 2
 985 103 1089 95 1147 87 c 1
 1147 32 l 1
 880 -12 l 1
 813 -12 l 1
 804 143 l 1
 710 35 608 -20 488 -20 c 0
 261 -20 80 153 80 414 c 0
 80 714 279 923 544 923 c 0
 634 923 714 889 799 849 c 1
EndSplineSet
Validated: 5
EndChar

StartChar: gcommaaccent
Encoding: 291 291 254
Width: 965
Flags: W
LayerCount: 2
Fore
SplineSet
560 1 m 2
 481 2 l 2
 423 3 366 8 303 15 c 1
 233 -45 206 -94 206 -137 c 0
 206 -242 385 -268 468 -268 c 0
 602 -268 803 -223 803 -118 c 0
 803 -47 730 -2 560 1 c 2
288 634 m 0
 288 491 346 374 477 374 c 0
 589 374 637 466 637 597 c 0
 637 763 554 852 449 852 c 0
 359 852 288 764 288 634 c 0
941 888 m 1
 926 761 l 1
 873 777 733 803 733 803 c 1
 733 803 812 714 812 626 c 0
 812 415 630 308 458 308 c 0
 420 308 382 314 330 326 c 1
 299 302 259 292 259 243 c 0
 259 174 404 189 656 171 c 0
 817 159 939 87 939 -52 c 0
 939 -238 711 -351 442 -351 c 0
 204 -351 76 -263 76 -184 c 0
 76 -128 119 -57 229 24 c 1
 156 54 110 103 110 163 c 0
 110 239 180 297 275 352 c 1
 172 410 110 498 110 613 c 0
 110 796 256 926 457 926 c 0
 542 926 614 906 677 873 c 1
 677 873 803 892 894 892 c 0
 917 892 941 888 941 888 c 1
617 1595 m 1
 633 1582 647 1565 653 1539 c 1
 569 1491 474 1460 474 1356 c 1
 493 1329 519 1310 560 1303 c 0
 631 1290 665 1252 665 1190 c 0
 665 1116 609 1060 526 1060 c 0
 418 1060 345 1145 345 1266 c 0
 345 1410 444 1564 617 1595 c 1
EndSplineSet
Validated: 1
EndChar

StartChar: Hbar
Encoding: 294 294 255
Width: 1624
Flags: W
LayerCount: 2
Fore
SplineSet
69 1176 m 1
 700 1176 l 1
 703 1166 705 1160 705 1158 c 0
 705 1099 484 1139 484 1030 c 2
 484 925 l 1
 1141 925 l 1
 1141 1030 l 2
 1141 1134 932 1100 932 1159 c 0
 932 1160 933 1166 936 1176 c 1
 1555 1176 l 1
 1558 1166 1560 1160 1560 1158 c 0
 1560 1104 1356 1132 1356 1030 c 2
 1356 124 l 2
 1356 21 1563 73 1563 17 c 0
 1563 14 1562 9 1559 0 c 1
 936 0 l 1
 933 7 931 13 931 18 c 0
 931 84 1141 14 1141 130 c 2
 1141 576 l 1
 484 576 l 1
 484 124 l 2
 484 21 708 73 708 17 c 0
 708 14 707 9 704 0 c 1
 69 0 l 1
 66 7 64 13 64 18 c 0
 64 84 269 14 269 130 c 2
 269 1030 l 2
 269 1131 65 1100 65 1159 c 0
 65 1160 66 1166 69 1176 c 1
484 636 m 1
 1141 636 l 1
 1141 807 l 1
 484 807 l 1
 484 636 l 1
EndSplineSet
Validated: 1
EndChar

StartChar: hbar
Encoding: 295 295 256
Width: 1240
Flags: W
LayerCount: 2
Fore
SplineSet
603 960 m 1
 1 960 l 1
 1 1088 l 1
 603 1088 l 1
 603 960 l 1
1012 568 m 2
 1012 221 l 2
 1012 188 1016 158 1024 133 c 1
 1038 67 1131 72 1164 50 c 1
 1164 34 1162 0 1162 0 c 1
 670 0 l 1
 670 0 668 34 668 50 c 1
 710 69 804 73 817 136 c 0
 822 160 826 187 826 214 c 2
 826 577 l 2
 826 713 774 818 634 818 c 0
 531 818 440 752 375 684 c 1
 375 233 l 2
 375 196 379 164 384 137 c 0
 397 70 502 71 549 50 c 1
 549 34 548 0 548 0 c 1
 15 0 l 1
 15 0 13 34 13 50 c 1
 36 73 141 61 154 109 c 1
 180 140 188 186 188 233 c 0
 188 543 188 854 188 1164 c 1
 159 1210 16 1258 16 1258 c 1
 17 1293 l 1
 303 1369 l 1
 375 1376 l 1
 375 768 l 1
 470 862 562 926 705 926 c 0
 879 926 1012 821 1012 568 c 2
EndSplineSet
Validated: 5
EndChar

StartChar: kgreenlandic
Encoding: 312 312 270
Width: 1136
Flags: W
LayerCount: 2
Fore
SplineSet
209 120 m 2
 209 748 l 2
 209 824 36 813 36 856 c 0
 36 859 36 861 39 868 c 1
 563 868 l 1
 566 861 567 857 567 854 c 0
 567 807 415 836 415 752 c 2
 415 475 l 1
 477 475 l 1
 827 778 l 1
 829 783 829 787 829 789 c 0
 829 852 700 813 700 855 c 0
 700 858 701 863 703 868 c 1
 1097 868 l 1
 1100 855 l 1
 1100 840 1070 828 1017 817 c 0
 968 806 934 790 915 774 c 2
 619 522 l 1
 953 94 l 1
 981 62 1129 41 1129 13 c 0
 1129 9 1129 4 1126 0 c 1
 631 0 l 1
 628 6 626 10 626 12 c 0
 626 49 743 24 743 74 c 0
 743 77 741 85 730 97 c 1
 480 420 l 1
 415 420 l 1
 415 116 l 2
 415 32 567 60 567 14 c 0
 567 11 566 7 563 0 c 1
 39 0 l 1
 36 7 36 9 36 12 c 0
 36 55 209 44 209 120 c 2
EndSplineSet
Validated: 1
EndChar

StartChar: Ldot
Encoding: 319 319 277
Width: 1121
Flags: W
LayerCount: 2
Fore
SplineSet
618 609 m 0
 618 685 686 757 771 757 c 0
 856 757 924 685 924 609 c 0
 924 534 856 461 771 461 c 0
 687 461 618 528 618 609 c 0
276 240 m 2
 276 1034 l 2
 276 1076 272 1113 265 1147 c 0
 248 1228 139 1221 46 1251 c 1
 46 1266 48 1302 48 1302 c 1
 723 1302 l 1
 723 1302 724 1267 724 1250 c 1
 653 1221 517 1229 502 1148 c 1
 494 1115 492 1078 492 1040 c 2
 492 312 l 2
 492 201 507 102 593 83 c 1
 627 78 666 76 709 76 c 2
 857 77 l 2
 1002 78 1082 97 1148 217 c 1
 1170 264 1196 317 1222 344 c 1
 1240 344 1282 342 1282 342 c 1
 1219 -11 l 1
 1219 -11 1095 0 1000 0 c 2
 47 0 l 1
 47 0 45 36 45 54 c 1
 156 93 276 88 276 240 c 2
EndSplineSet
Validated: 1
EndChar

StartChar: ldot
Encoding: 320 320 278
Width: 852
Flags: W
LayerCount: 2
Fore
SplineSet
481 755 m 0
 481 831 549 903 634 903 c 0
 719 903 787 831 787 755 c 0
 787 680 719 607 634 607 c 0
 550 607 481 674 481 755 c 0
312 1369 m 1
 384 1376 l 1
 384 234 l 2
 384 200 386 168 391 140 c 0
 401 73 497 73 533 50 c 1
 533 33 531 0 531 0 c 1
 39 0 l 1
 39 0 38 34 38 50 c 1
 77 76 178 74 190 140 c 0
 195 167 198 196 198 228 c 0
 198 542 197 855 197 1169 c 1
 170 1213 32 1258 32 1258 c 1
 34 1293 l 1
 312 1369 l 1
EndSplineSet
Validated: 1
EndChar

StartChar: Eng
Encoding: 330 330 285
Width: 1482
Flags: W
LayerCount: 2
Fore
SplineSet
1226 1040 m 2
 1226 1006 l 1
 1211 117 l 2
 1205 -217 1095 -312 995 -312 c 0
 911 -312 834 -245 834 -197 c 0
 834 -158 864 -126 916 -126 c 0
 955 -126 993 -150 993 -189 c 0
 993 -210 1013 -237 1040 -237 c 0
 1080 -237 1151 -172 1151 79 c 1
 334 952 l 1
 362 150 l 2
 367 14 592 96 593 20 c 0
 593 16 592 12 587 0 c 1
 51 0 l 1
 48 6 47 13 47 22 c 0
 47 89 259 34 263 157 c 2
 288 1022 l 1
 288 1128 98 1098 62 1158 c 1
 66 1176 l 1
 438 1176 l 1
 1151 405 l 1
 1131 1040 l 2
 1128 1142 900 1104 901 1158 c 0
 901 1162 903 1168 906 1176 c 1
 1452 1176 l 1
 1455 1166 1456 1160 1456 1159 c 0
 1456 1101 1226 1145 1226 1040 c 2
EndSplineSet
Validated: 33
EndChar

StartChar: eng
Encoding: 331 331 286
Width: 1211
Flags: W
LayerCount: 2
Fore
SplineSet
881 82 m 2
 881 431 l 2
 881 671 874 833 684 833 c 0
 571 833 476 720 422 640 c 1
 422 120 l 2
 422 28 610 66 610 18 c 0
 610 12 609 6 606 0 c 1
 56 0 l 1
 55 4 51 11 51 18 c 0
 51 23 53 26 56 28 c 0
 129 71 216 38 216 126 c 2
 216 732 l 2
 216 817 29 779 29 824 c 0
 29 828 31 834 34 842 c 1
 402 880 l 1
 422 732 l 1
 477 803 579 902 744 902 c 0
 964 902 1077 743 1077 463 c 2
 1077 119 l 2
 1077 -199 902 -296 761 -296 c 0
 664 -296 583 -250 583 -198 c 0
 583 -134 615 -117 658 -117 c 0
 772 -117 710 -224 781 -224 c 0
 821 -224 881 -162 881 82 c 2
EndSplineSet
Validated: 1
EndChar

StartChar: Tbar
Encoding: 358 358 306
Width: 1180
Flags: W
LayerCount: 2
Fore
SplineSet
888 699 m 1
 888 627 l 1
 256 627 l 1
 256 699 l 1
 888 699 l 1
40 872 m 1
 73 1189 l 1
 87 1189 103 1191 109 1191 c 0
 150 1191 181 1180 225 1173 c 1
 979 1179 l 2
 1006 1179 1056 1193 1072 1193 c 2
 1100 1193 l 1
 1145 872 l 1
 1139 869 1133 868 1127 868 c 0
 1109 868 1086 925 1073 969 c 0
 1046 1057 1023 1109 958 1112 c 1
 685 1120 l 1
 685 124 l 2
 685 21 919 78 919 17 c 0
 919 14 918 9 915 0 c 1
 245 0 l 1
 242 5 241 11 241 18 c 0
 241 85 470 12 470 130 c 2
 470 1120 l 1
 239 1112 l 2
 173 1110 145 1053 116 969 c 0
 100 924 78 868 57 868 c 0
 54 868 49 869 40 872 c 1
EndSplineSet
Validated: 5
EndChar

StartChar: tbar
Encoding: 359 359 307
Width: 656
Flags: W
LayerCount: 2
Fore
SplineSet
623 815 m 1
 374 815 l 1
 374 314 l 2
 374 135 378 86 506 86 c 0
 564 86 623 101 646 108 c 1
 654 35 l 1
 615 17 544 -20 426 -20 c 0
 234 -20 187 66 187 317 c 2
 187 815 l 1
 38 815 l 1
 38 859 l 1
 198 923 248 1021 322 1134 c 0
 326 1141 338 1149 349 1149 c 0
 361 1149 372 1139 372 1110 c 2
 372 899 l 1
 623 899 l 1
 623 815 l 1
630 402 m 1
 28 402 l 1
 28 530 l 1
 630 530 l 1
 630 402 l 1
EndSplineSet
Validated: 5
EndChar

StartChar: Euro
Encoding: 8364 8364 326
Width: 1179
Flags: W
LayerCount: 2
Fore
SplineSet
838 549 m 1
 834 515 819 497 767 480 c 1
 395 480 l 1
 429 244 535 63 711 63 c 0
 838 63 933 161 968 241 c 1
 1084 209 l 1
 1035 105 900 -22 698 -22 c 0
 424 -22 239 192 193 480 c 1
 141 480 l 2
 82 480 59 483 47 501 c 1
 50 532 64 554 113 570 c 1
 181 570 l 1
 180 590 179 611 179 631 c 0
 179 653 179 677 181 699 c 1
 105 699 l 1
 67 714 56 731 56 757 c 0
 56 783 78 789 146 789 c 2
 193 789 l 1
 240 1056 406 1289 694 1289 c 0
 805 1289 909 1248 1010 1177 c 1
 1037 1102 1060 1022 1078 940 c 1
 954 940 l 1
 897 1120 802 1213 675 1213 c 0
 523 1213 415 1053 389 789 c 1
 572 789 l 2
 695 789 784 782 862 767 c 1
 857 734 843 716 791 699 c 1
 383 699 l 1
 383 658 l 2
 383 629 384 599 386 570 c 1
 562 570 l 2
 681 570 765 564 838 549 c 1
EndSplineSet
Validated: 1
EndChar

StartChar: uniFB00
Encoding: 64256 64256 327
Width: 1240
Flags: W
LayerCount: 2
Fore
SplineSet
62 809 m 1
 62 868 l 1
 205 868 l 1
 205 965 l 2
 205 1225 420 1297 576 1297 c 0
 685 1297 821 1272 861 1208 c 1
 921 1273 1009 1297 1096 1297 c 0
 1227 1297 1354 1263 1354 1164 c 0
 1354 1112 1323 1068 1254 1068 c 0
 1195 1068 1167 1105 1167 1150 c 0
 1167 1177 1181 1198 1181 1217 c 0
 1181 1248 1154 1256 1107 1256 c 0
 1035 1256 991 1223 991 947 c 2
 991 868 l 1
 1202 868 l 1
 1202 809 l 1
 991 809 l 1
 991 110 l 2
 991 27 1169 66 1169 17 c 0
 1169 16 1168 10 1165 0 c 1
 629 0 l 1
 626 10 625 16 625 17 c 0
 625 66 785 27 785 110 c 2
 785 809 l 1
 411 809 l 1
 411 110 l 2
 411 27 589 66 589 17 c 0
 589 16 588 10 585 0 c 1
 49 0 l 1
 46 10 45 16 45 17 c 0
 45 66 205 27 205 110 c 2
 205 809 l 1
 62 809 l 1
785 868 m 1
 785 965 l 2
 785 1005 788 1040 795 1069 c 1
 788 1068 781 1068 774 1068 c 0
 715 1068 687 1105 687 1150 c 0
 687 1177 701 1198 701 1217 c 0
 701 1246 635 1256 587 1256 c 0
 516 1256 411 1223 411 947 c 2
 411 868 l 1
 785 868 l 1
EndSplineSet
Validated: 1
Ligature2: "'liga' Standard Ligatures in Latin lookup 0-1" f f
EndChar

StartChar: uniFB01
Encoding: 64257 64257 328
Width: 1219
Flags: W
LayerCount: 2
Fore
SplineSet
780 1104 m 0
 780 1131 786 1147 794 1162 c 1
 791 1195 767 1256 627 1256 c 0
 528 1256 411 1223 411 947 c 2
 411 868 l 1
 1025 868 l 1
 1025 120 l 2
 1025 28 1203 66 1203 18 c 0
 1203 12 1202 6 1199 0 c 1
 638 0 l 1
 635 9 634 14 634 17 c 0
 634 74 819 32 819 126 c 2
 819 809 l 1
 411 809 l 1
 411 110 l 2
 411 27 589 66 589 17 c 0
 589 16 588 10 585 0 c 1
 49 0 l 1
 46 10 45 16 45 17 c 0
 45 66 205 27 205 110 c 2
 205 809 l 1
 62 809 l 1
 62 868 l 1
 205 868 l 1
 205 965 l 2
 205 1225 416 1297 616 1297 c 0
 735 1297 1025 1278 1025 1109 c 0
 1025 1037 972 983 901 983 c 0
 833 983 780 1036 780 1104 c 0
EndSplineSet
Validated: 1
Ligature2: "'liga' Standard Ligatures in Latin lookup 0-1" f i
EndChar

StartChar: uniFB02
Encoding: 64258 64258 329
Width: 1219
Flags: W
LayerCount: 2
Fore
SplineSet
818 126 m 2
 817 809 l 1
 411 809 l 1
 411 110 l 2
 411 27 589 66 589 17 c 0
 589 16 588 10 585 0 c 1
 49 0 l 1
 46 10 45 16 45 17 c 0
 45 66 205 27 205 110 c 2
 205 809 l 1
 62 809 l 1
 62 868 l 1
 205 868 l 1
 205 965 l 2
 205 1225 416 1297 616 1297 c 0
 981 1297 1026 1208 1026 1123 c 0
 1025 936 1025 769 1025 622 c 2
 1025 120 l 2
 1025 36 1203 66 1203 18 c 0
 1203 12 1202 6 1199 0 c 1
 638 0 l 1
 635 8 634 10 634 17 c 0
 634 73 818 31 818 126 c 2
817 868 m 1
 817 1016 l 2
 817 1059 821 1096 821 1128 c 0
 821 1209 796 1256 627 1256 c 0
 528 1256 411 1223 411 947 c 2
 411 868 l 1
 817 868 l 1
EndSplineSet
Validated: 1
Ligature2: "'liga' Standard Ligatures in Latin lookup 0-1" f l
EndChar

StartChar: uniFB03
Encoding: 64259 64259 330
Width: 1804
Flags: W
LayerCount: 2
Fore
SplineSet
1365 1104 m 0
 1365 1131 1371 1147 1379 1162 c 1
 1376 1195 1352 1256 1212 1256 c 0
 1113 1256 996 1223 996 947 c 2
 996 868 l 1
 1610 868 l 1
 1610 120 l 2
 1610 28 1788 66 1788 18 c 0
 1788 12 1787 6 1784 0 c 1
 1223 0 l 1
 1220 9 1219 14 1219 17 c 0
 1219 74 1404 32 1404 126 c 2
 1404 809 l 1
 996 809 l 1
 996 110 l 2
 996 27 1174 66 1174 17 c 0
 1174 16 1173 10 1170 0 c 1
 634 0 l 1
 631 10 630 16 630 17 c 0
 630 66 790 27 790 110 c 2
 790 809 l 1
 411 809 l 1
 411 110 l 2
 411 27 589 66 589 17 c 0
 589 16 588 10 585 0 c 1
 49 0 l 1
 46 10 45 16 45 17 c 0
 45 66 205 27 205 110 c 2
 205 809 l 1
 62 809 l 1
 62 868 l 1
 205 868 l 1
 205 965 l 2
 205 1225 451 1297 606 1297 c 0
 714 1297 851 1274 897 1212 c 1
 977 1275 1090 1297 1201 1297 c 0
 1320 1297 1610 1278 1610 1109 c 0
 1610 1037 1557 983 1486 983 c 0
 1418 983 1365 1036 1365 1104 c 0
790 868 m 1
 790 965 l 2
 790 1004 794 1037 803 1068 c 1
 752 1073 727 1107 727 1150 c 0
 727 1177 741 1198 741 1217 c 0
 741 1246 664 1256 617 1256 c 0
 545 1256 411 1223 411 947 c 2
 411 868 l 1
 790 868 l 1
EndSplineSet
Validated: 1
Ligature2: "'liga' Standard Ligatures in Latin lookup 0-1" f f i
EndChar

StartChar: uniFB04
Encoding: 64260 64260 331
Width: 1805
Flags: W
LayerCount: 2
Fore
SplineSet
1404 126 m 2
 1403 809 l 1
 997 809 l 1
 997 110 l 2
 997 27 1175 66 1175 17 c 0
 1175 16 1174 10 1171 0 c 1
 635 0 l 1
 632 10 631 16 631 17 c 0
 631 66 791 27 791 110 c 2
 791 809 l 1
 411 809 l 1
 411 110 l 2
 411 27 589 66 589 17 c 0
 589 16 588 10 585 0 c 1
 49 0 l 1
 46 10 45 16 45 17 c 0
 45 66 205 27 205 110 c 2
 205 809 l 1
 62 809 l 1
 62 868 l 1
 205 868 l 1
 205 965 l 2
 205 1225 451 1297 606 1297 c 0
 714 1297 851 1274 898 1211 c 1
 978 1275 1092 1297 1202 1297 c 0
 1321 1297 1611 1278 1611 1109 c 2
 1611 120 l 2
 1611 28 1789 66 1789 18 c 0
 1789 12 1788 6 1785 0 c 1
 1224 0 l 1
 1221 8 1220 10 1220 17 c 0
 1220 27 1225 34 1235 39 c 2
 1244 43 l 1
 1293 62 1404 51 1404 126 c 2
1403 868 m 1
 1403 1016 l 2
 1403 1071 1415 1117 1415 1156 c 0
 1415 1219 1384 1256 1213 1256 c 0
 1114 1256 997 1223 997 947 c 2
 997 868 l 1
 1403 868 l 1
791 868 m 1
 791 965 l 2
 791 1004 795 1037 804 1068 c 1
 752 1072 727 1107 727 1150 c 0
 727 1177 741 1198 741 1217 c 0
 741 1246 664 1256 617 1256 c 0
 545 1256 411 1223 411 947 c 2
 411 868 l 1
 791 868 l 1
EndSplineSet
Validated: 1
Ligature2: "'liga' Standard Ligatures in Latin lookup 0-1" f f l
EndChar

StartChar: t_t
Encoding: 65545 -1 333
Width: 1195
Flags: W
LayerCount: 2
Fore
SplineSet
32 809 m 1
 32 838 l 1
 248 914 309 1106 352 1106 c 0
 361 1106 376 1098 376 1050 c 2
 376 868 l 1
 680 868 l 1
 835 956 861 1106 898 1106 c 0
 907 1106 922 1098 922 1050 c 2
 922 868 l 1
 1138 868 l 1
 1138 809 l 1
 927 809 l 1
 927 333 l 2
 927 119 949 54 1045 54 c 0
 1110 54 1168 98 1170 98 c 0
 1178 98 1184 89 1189 81 c 2
 1197 65 l 1
 1171 29 1118 -17 1010 -17 c 0
 845 -17 721 56 721 334 c 2
 721 809 l 1
 381 809 l 1
 381 333 l 2
 381 119 403 54 499 54 c 0
 564 54 622 98 624 98 c 0
 632 98 638 89 643 81 c 2
 651 65 l 1
 625 29 572 -17 464 -17 c 0
 299 -17 175 56 175 334 c 2
 175 809 l 1
 32 809 l 1
EndSplineSet
Validated: 1
Ligature2: "'liga' Standard Ligatures in Latin lookup 0-1" t t
EndChar

StartChar: commaaccent
Encoding: 65546 -1 334
Width: 734
Flags: W
LayerCount: 2
Fore
SplineSet
207 -238 m 0
 207 -162 268 -90 360 -90 c 0
 445 -90 526 -138 526 -312 c 0
 526 -493 374 -577 290 -577 c 0
 267 -577 248 -570 248 -539 c 0
 248 -487 373 -514 373 -386 c 1
 264 -386 207 -319 207 -238 c 0
EndSplineSet
Validated: 1
EndChar

StartChar: c_k
Encoding: 65547 -1 335
Width: 2034
Flags: W
LayerCount: 2
Fore
SplineSet
1107 120 m 2
 1107 1223 l 1
 1096 1223 1085 1225 1061 1225 c 0
 977 1225 806 1202 806 1014 c 0
 806 950 825 871 872 767 c 1
 861 756 841 736 826 733 c 1
 743 885 711 997 711 1084 c 0
 711 1284 892 1329 1055 1329 c 1
 1123 1328 1187 1322 1235 1313 c 2
 1313 1298 l 1
 1313 475 l 1
 1375 475 l 1
 1725 778 l 1
 1727 783 1727 787 1727 789 c 0
 1727 852 1598 813 1598 855 c 0
 1598 858 1599 863 1601 868 c 1
 1995 868 l 1
 1998 855 l 1
 1998 840 1968 829 1915 817 c 0
 1867 806 1832 790 1813 774 c 2
 1517 522 l 1
 1851 94 l 1
 1879 62 2027 41 2027 13 c 0
 2027 9 2027 4 2024 0 c 1
 1529 0 l 1
 1526 6 1524 10 1524 12 c 0
 1524 49 1641 24 1641 74 c 0
 1641 78 1637 86 1628 97 c 2
 1378 420 l 1
 1313 420 l 1
 1313 116 l 2
 1313 32 1465 60 1465 14 c 0
 1465 11 1464 7 1461 0 c 1
 937 0 l 1
 934 7 934 9 934 12 c 0
 934 55 1107 44 1107 120 c 2
708 774 m 0
 708 819 655 846 586 846 c 0
 461 846 281 749 281 472 c 0
 281 237 379 95 575 95 c 0
 687 95 735 107 842 131 c 1
 853 131 855 123 855 108 c 0
 855 101 854 95 849 90 c 0
 772 18 653 -17 529 -17 c 0
 268 -17 75 159 75 442 c 0
 75 766 347 902 576 902 c 0
 741 902 885 831 885 707 c 0
 885 641 828 604 776 604 c 0
 729 604 688 632 688 691 c 0
 688 724 708 751 708 774 c 0
EndSplineSet
Validated: 5
Ligature2: "'liga' Standard Ligatures in Latin lookup 0-1" c k
EndChar

StartChar: uni0311
Encoding: 785 785 340
Width: 691
Flags: W
LayerCount: 2
Fore
SplineSet
100 667 m 1
 104 805 174 914 347 914 c 0
 516 914 593 802 593 667 c 1
 535 667 l 1
 530 685 520 699 508 712 c 1
 482 758 438 783 347 783 c 0
 258 783 217 759 191 714 c 1
 177 701 165 685 157 667 c 1
 100 667 l 1
EndSplineSet
Validated: 1
EndChar

StartChar: dotaccentcmb
Encoding: 775 775 341
Width: 691
Flags: W
LayerCount: 2
Fore
SplineSet
345 900 m 0
 406 900 455 851 455 791 c 0
 455 730 406 682 345 682 c 0
 286 682 236 730 236 791 c 0
 236 851 286 900 345 900 c 0
EndSplineSet
Validated: 1
EndChar

StartChar: dotlessj
Encoding: 567 567 342
Width: 540
Flags: W
LayerCount: 2
Fore
SplineSet
201 88 m 1
 201 710 l 1
 169 761 38 797 38 797 c 1
 39 832 l 1
 319 911 l 1
 387 918 l 1
 387 125 l 2
 387 -168 251 -282 14 -308 c 1
 -1 -250 l 1
 163 -176 190 -136 201 88 c 1
EndSplineSet
Validated: 1
EndChar

StartChar: foundryicon
Encoding: 65552 -1 343
Width: 1251
Flags: W
LayerCount: 2
Fore
SplineSet
604 375 m 2
 592 375 l 1
 541 332 449 260 398 221 c 0
 372 201 292 115 267 115 c 0
 247 115 232 119 232 141 c 0
 232 160 240 167 245 186 c 0
 271 297 324 418 354 516 c 1
 354 516 356 518 356 520 c 1
 354 522 l 1
 295 604 213 668 137 735 c 0
 104 764 18 791 18 840 c 0
 18 860 33 870 57 870 c 0
 68 870 197 848 279 848 c 1
 469 840 l 1
 563 1075 l 1
 594 1123 608 1235 666 1235 c 0
 685 1235 715 1206 715 1188 c 0
 715 1111 750 970 768 895 c 2
 779 848 l 1
 836 843 909 842 980 842 c 0
 1050 842 1111 848 1171 848 c 0
 1198 848 1225 838 1225 807 c 0
 1225 793 1147 750 1128 735 c 1
 1055 668 983 573 893 528 c 2
 881 522 l 1
 881 510 l 2
 881 457 909 389 922 344 c 1
 930 342 975 135 975 106 c 0
 975 86 963 72 942 72 c 0
 889 72 723 375 604 375 c 2
EndSplineSet
Validated: 1
EndChar

StartChar: uni030F
Encoding: 783 783 344
Width: 968
Flags: W
LayerCount: 2
Fore
SplineSet
496 1027 m 1
 531 1047 593 1070 647 1070 c 1
 684 1021 709 914 805 725 c 1
 812 702 817 680 821 656 c 1
 814 647 802 642 789 642 c 1
 770 658 746 688 720 724 c 0
 668 795 528 961 496 1027 c 1
192 1028 m 1
 227 1046 289 1070 343 1070 c 1
 384 1021 379 948 482 725 c 1
 489 702 494 680 497 658 c 1
 490 647 477 642 463 642 c 1
 443 658 425 689 400 724 c 0
 338 812 223 963 192 1028 c 1
EndSplineSet
Validated: 1
EndChar

StartChar: uni0326
Encoding: 806 806 345
Width: 734
Flags: W
LayerCount: 2
Fore
SplineSet
207 -238 m 0
 207 -162 268 -90 360 -90 c 0
 445 -90 526 -138 526 -312 c 0
 526 -493 374 -577 290 -577 c 0
 267 -577 248 -570 248 -539 c 0
 248 -487 373 -514 373 -386 c 1
 264 -386 207 -319 207 -238 c 0
EndSplineSet
Validated: 1
EndChar
